<svg viewBox="0 0 2974 1301" fill="none" xmlns="http://www.w3.org/2000/svg">
	<path
		fill-rule="evenodd"
		clip-rule="evenodd"
		d="M2974 1001.98L2178.78 7.37549L2178 7.99996L2974 1003.58V1001.98Z"
		fill="url(#paint0_linear_1615_14077)"
	/>
	<line x1="7.4711e-09" y1="1031.5" x2="2974" y2="1031.5" stroke="#626262" stroke-opacity="0.8" />
	<line
		x1="1840.46"
		y1="7.80175"
		x2="2398.46"
		y2="1299.8"
		stroke="url(#paint1_linear_1615_14077)"
	/>
	<line
		x1="1993.42"
		y1="7.73394"
		x2="2805.42"
		y2="1299.73"
		stroke="url(#paint2_linear_1615_14077)"
	/>
	<line
		x1="978.426"
		y1="8.26155"
		x2="185.426"
		y2="1300.26"
		stroke="url(#paint3_linear_1615_14077)"
	/>
	<line
		y1="-0.5"
		x2="1407.35"
		y2="-0.5"
		transform="matrix(-0.39649 0.918039 0.918039 0.39649 1158 8)"
		stroke="url(#paint4_linear_1615_14077)"
	/>
	<path
		d="M1764 1035.89C1764 1129.84 1640.65 1206 1488.5 1206C1336.35 1206 1213 1129.84 1213 1035.89C1213 941.938 1336.35 865.776 1488.5 865.776C1640.65 865.776 1764 941.938 1764 1035.89Z"
		fill="#0AE2B3"
	/>
	<rect x="1213" y="968.448" width="550.639" height="66.4746" fill="#0AE2B3" />
	<ellipse cx="1488.32" cy="968.448" rx="275.319" ry="170.448" fill="#00FFBB" />
	<path
		fill-rule="evenodd"
		clip-rule="evenodd"
		d="M1760.1 997.311C1733.91 1074.42 1623.14 1132.33 1490.47 1132.33C1338.31 1132.33 1214.97 1056.17 1214.97 962.219C1214.97 952.263 1216.35 942.507 1219.01 933.02C1215.16 944.344 1213.14 956.082 1213.14 968.112C1213.14 1062.06 1336.49 1138.22 1488.64 1138.22C1624.67 1138.22 1737.68 1077.35 1760.1 997.311Z"
		fill="white"
	/>
	<path
		d="M2413 1060.49C2413 1140.85 2307.56 1206 2177.5 1206C2047.44 1206 1942 1140.85 1942 1060.49C1942 980.123 2047.44 914.975 2177.5 914.975C2307.56 914.975 2413 980.123 2413 1060.49Z"
		fill="#E8E8E8"
	/>
	<rect x="1942" y="1002.8" width="470.691" height="56.8619" fill="#E8E8E8" />
	<ellipse cx="2177.35" cy="1002.8" rx="235.346" ry="145.8" fill="#F7F7F7" />
	<path
		fill-rule="evenodd"
		clip-rule="evenodd"
		d="M2409.67 1027.49C2387.28 1093.45 2292.59 1142.98 2179.18 1142.98C2049.12 1142.98 1943.68 1077.84 1943.68 997.472C1943.68 988.955 1944.87 980.61 1947.14 972.495C1943.85 982.182 1942.12 992.223 1942.12 1002.51C1942.12 1082.88 2047.56 1148.03 2177.62 1148.03C2293.9 1148.03 2390.5 1095.95 2409.67 1027.49Z"
		fill="white"
	/>
	<path
		d="M1033 1060.49C1033 1140.85 927.339 1206 797 1206C666.661 1206 561 1140.85 561 1060.49C561 980.123 666.661 914.975 797 914.975C927.339 914.975 1033 980.123 1033 1060.49Z"
		fill="#E8E8E8"
	/>
	<rect x="561" y="1002.8" width="471.69" height="56.8619" fill="#E8E8E8" />
	<ellipse cx="796.845" cy="1002.8" rx="235.845" ry="145.8" fill="#F7F7F7" />
	<path
		fill-rule="evenodd"
		clip-rule="evenodd"
		d="M1029.66 1027.49C1007.22 1093.45 912.333 1142.98 798.683 1142.98C668.344 1142.98 562.683 1077.84 562.683 997.472C562.683 988.955 563.87 980.61 566.146 972.495C562.852 982.182 561.119 992.223 561.119 1002.51C561.119 1082.88 666.78 1148.03 797.119 1148.03C913.646 1148.03 1010.45 1095.95 1029.66 1027.49Z"
		fill="white"
	/>
	<g filter="url(#filter0_f_1615_14077)">
		<path
			fill-rule="evenodd"
			clip-rule="evenodd"
			d="M1756.73 994.369L1840.46 263L1133.99 263L1217.71 994.369L1756.73 994.369Z"
			fill="url(#paint5_linear_1615_14077)"
			fill-opacity="0.1"
		/>
	</g>
	<line y1="736" x2="2974" y2="736" stroke="#626262" stroke-opacity="0.7" />
	<line y1="564.5" x2="2974" y2="564.5" stroke="#626262" stroke-opacity="0.6" />
	<line y1="298.5" x2="2974" y2="298.5" stroke="#626262" stroke-opacity="0.45" />
	<line y1="198.25" x2="2974" y2="198.25" stroke="#626262" stroke-opacity="0.4" />
	<line y1="119.244" x2="2974" y2="119.244" stroke="#626262" stroke-opacity="0.35" />
	<line y1="54" x2="2974" y2="54" stroke="#626262" stroke-opacity="0.3" />
	<line y1="7.75" x2="2974" y2="7.75" stroke="#626262" stroke-opacity="0.2" />
	<line y1="421" x2="2974" y2="421" stroke="#626262" stroke-opacity="0.5" />
	<line
		x1="1325.49"
		y1="0.0926006"
		x2="1080.49"
		y2="1300.09"
		stroke="url(#paint6_linear_1615_14077)"
	/>
	<line
		x1="1649.49"
		y1="7.90942"
		x2="1887.49"
		y2="1299.91"
		stroke="url(#paint7_linear_1615_14077)"
	/>
	<path
		fill-rule="evenodd"
		clip-rule="evenodd"
		d="M2974 1002.8V1059.66H2590V1002.8H2974Z"
		fill="#E8E8E8"
	/>
	<path
		fill-rule="evenodd"
		clip-rule="evenodd"
		d="M2974 947.138V1173.84C2933.52 1193.96 2882.04 1206 2826 1206C2695.66 1206 2590 1140.85 2590 1060.49C2590 980.123 2695.66 914.975 2826 914.975C2882.04 914.975 2933.52 927.019 2974 947.138Z"
		fill="#E8E8E8"
	/>
	<path
		fill-rule="evenodd"
		clip-rule="evenodd"
		d="M2974 889.352V1116.25C2933.51 1136.48 2881.97 1148.6 2825.85 1148.6C2695.59 1148.6 2590 1083.32 2590 1002.8C2590 922.277 2695.59 857 2825.85 857C2881.97 857 2933.51 869.118 2974 889.352Z"
		fill="#F7F7F7"
	/>
	<path
		fill-rule="evenodd"
		clip-rule="evenodd"
		d="M0 1033.6V1031.99L819.219 7.37549L820 7.99996L0 1033.6Z"
		fill="url(#paint8_linear_1615_14077)"
	/>
	<path
		fill-rule="evenodd"
		clip-rule="evenodd"
		d="M2974 1111.16V1115.43C2933.54 1135.52 2882.1 1147.54 2826.12 1147.54C2695.78 1147.54 2590.12 1082.39 2590.12 1002.03C2590.12 991.733 2591.85 981.689 2595.15 972C2592.87 980.118 2591.68 988.466 2591.68 996.985C2591.68 1077.35 2697.34 1142.5 2827.68 1142.5C2882.95 1142.5 2933.78 1130.78 2974 1111.16Z"
		fill="white"
	/>
	<path
		fill-rule="evenodd"
		clip-rule="evenodd"
		d="M0 1002.8V1059.66H384V1002.8H0Z"
		fill="#E8E8E8"
	/>
	<path
		fill-rule="evenodd"
		clip-rule="evenodd"
		d="M0 947.138V1173.84C40.4796 1193.96 91.9586 1206 148 1206C278.339 1206 384 1140.85 384 1060.49C384 980.123 278.339 914.975 148 914.975C91.9586 914.975 40.4796 927.019 0 947.138Z"
		fill="#E8E8E8"
	/>
	<path
		fill-rule="evenodd"
		clip-rule="evenodd"
		d="M0 889.352V1116.25C40.4913 1136.48 92.0339 1148.6 148.155 1148.6C278.408 1148.6 384 1083.32 384 1002.8C384 922.277 278.408 857 148.155 857C92.0339 857 40.4913 869.118 0 889.352Z"
		fill="#F7F7F7"
	/>
	<path
		fill-rule="evenodd"
		clip-rule="evenodd"
		d="M0 1111.16V1115.43C40.4615 1135.52 91.8945 1147.54 147.881 1147.54C278.22 1147.54 383.881 1082.39 383.881 1002.03C383.881 991.733 382.148 981.689 378.851 972C381.129 980.118 382.316 988.466 382.316 996.985C382.316 1077.35 276.656 1142.5 146.316 1142.5C91.0491 1142.5 40.219 1130.78 0 1111.16Z"
		fill="white"
	/>
	<g filter="url(#filter1_d_1615_14077)">
		<path
			d="M1358.59 864.194L1399.63 892.689C1392.15 895.419 1385.13 898.966 1378.84 903.333C1372.55 907.7 1367.44 912.575 1363.51 917.768L1322.48 889.274C1312.51 882.348 1312.51 871.119 1322.48 864.194C1332.45 857.269 1348.62 857.269 1358.59 864.194Z"
			fill="white"
		/>
		<path
			d="M1549.56 937.533C1559.53 944.458 1559.53 955.687 1549.56 962.612C1539.59 969.537 1523.42 969.538 1513.45 962.612L1470.49 932.783C1456.74 923.234 1434.45 923.234 1420.7 932.783C1406.95 942.331 1406.95 957.813 1420.7 967.362L1476.27 1005.95C1445.72 1013.88 1409.97 1009.31 1385.41 992.251C1351.86 968.957 1351.86 931.188 1385.41 907.893C1418.58 884.852 1472.15 884.601 1505.78 907.14L1505.79 907.133L1549.56 937.533Z"
			fill="white"
		/>
		<path
			d="M1464.2 937.533L1505.79 966.412C1519.54 975.961 1541.83 975.961 1555.58 966.412C1569.33 956.863 1569.33 941.381 1555.58 931.833L1500.01 893.245C1530.56 885.317 1566.31 889.883 1590.87 906.943C1624.42 930.238 1624.42 968.007 1590.87 991.301C1557.33 1014.6 1502.94 1014.6 1469.4 991.301L1428.09 962.612C1418.11 955.687 1418.11 944.458 1428.09 937.533C1438.06 930.607 1454.23 930.607 1464.2 937.533Z"
			fill="white"
		/>
		<path
			d="M1617.41 1034.81C1627.38 1041.73 1643.55 1041.73 1653.52 1034.81C1663.49 1027.88 1663.49 1016.65 1653.52 1009.73L1612.49 981.232C1608.56 986.425 1603.45 991.3 1597.16 995.667C1590.87 1000.03 1583.85 1003.58 1576.37 1006.31L1617.41 1034.81Z"
			fill="white"
		/>
	</g>
	<defs>
		<filter
			id="filter0_f_1615_14077"
			x="1123.98"
			y="253"
			width="726.473"
			height="751.369"
			filterUnits="userSpaceOnUse"
			color-interpolation-filters="sRGB"
		>
			<feFlood flood-opacity="0" result="BackgroundImageFix" />
			<feBlend mode="normal" in="SourceGraphic" in2="BackgroundImageFix" result="shape" />
			<feGaussianBlur stdDeviation="5" result="effect1_foregroundBlur_1615_14077" />
		</filter>
		<filter
			id="filter1_d_1615_14077"
			x="1315"
			y="859"
			width="346"
			height="201"
			filterUnits="userSpaceOnUse"
			color-interpolation-filters="sRGB"
		>
			<feFlood flood-opacity="0" result="BackgroundImageFix" />
			<feColorMatrix
				in="SourceAlpha"
				type="matrix"
				values="0 0 0 0 0 0 0 0 0 0 0 0 0 0 0 0 0 0 127 0"
				result="hardAlpha"
			/>
			<feOffset dy="20" />
			<feComposite in2="hardAlpha" operator="out" />
			<feColorMatrix type="matrix" values="0 0 0 0 0 0 0 0 0 0 0 0 0 0 0 0 0 0 0.4 0" />
			<feBlend mode="normal" in2="BackgroundImageFix" result="effect1_dropShadow_1615_14077" />
			<feBlend
				mode="normal"
				in="SourceGraphic"
				in2="effect1_dropShadow_1615_14077"
				result="shape"
			/>
		</filter>
		<linearGradient
			id="paint0_linear_1615_14077"
			x1="2178"
			y1="505.477"
			x2="2974"
			y2="505.477"
			gradientUnits="userSpaceOnUse"
		>
			<stop stop-color="#626262" stop-opacity="0.2" />
			<stop offset="1" stop-color="#626262" stop-opacity="0.7" />
		</linearGradient>
		<linearGradient
			id="paint1_linear_1615_14077"
			x1="1839.54"
			y1="8.19825"
			x2="2397.54"
			y2="1300.2"
			gradientUnits="userSpaceOnUse"
		>
			<stop stop-color="#626262" stop-opacity="0.2" />
			<stop offset="1" stop-color="#626262" stop-opacity="0.7" />
		</linearGradient>
		<linearGradient
			id="paint2_linear_1615_14077"
			x1="1992.58"
			y1="8.26606"
			x2="2804.58"
			y2="1300.27"
			gradientUnits="userSpaceOnUse"
		>
			<stop stop-color="#626262" stop-opacity="0.2" />
			<stop offset="1" stop-color="#626262" stop-opacity="0.7" />
		</linearGradient>
		<linearGradient
			id="paint3_linear_1615_14077"
			x1="977.574"
			y1="7.73845"
			x2="184.574"
			y2="1299.74"
			gradientUnits="userSpaceOnUse"
		>
			<stop stop-color="#626262" stop-opacity="0.2" />
			<stop offset="1" stop-color="#626262" stop-opacity="0.7" />
		</linearGradient>
		<linearGradient
			id="paint4_linear_1615_14077"
			x1="0"
			y1="0.5"
			x2="1407.35"
			y2="0.5"
			gradientUnits="userSpaceOnUse"
		>
			<stop stop-color="#626262" stop-opacity="0.2" />
			<stop offset="1" stop-color="#626262" stop-opacity="0.7" />
		</linearGradient>
		<linearGradient
			id="paint5_linear_1615_14077"
			x1="1487.22"
			y1="263"
			x2="1487.22"
			y2="994.369"
			gradientUnits="userSpaceOnUse"
		>
			<stop stop-color="#00FFBB" stop-opacity="0.1" />
			<stop offset="0.755" stop-color="#00FFBB" />
		</linearGradient>
		<linearGradient
			id="paint6_linear_1615_14077"
			x1="1324.51"
			y1="-0.0926006"
			x2="1079.51"
			y2="1299.91"
			gradientUnits="userSpaceOnUse"
		>
			<stop stop-color="#626262" stop-opacity="0.2" />
			<stop offset="1" stop-color="#626262" stop-opacity="0.7" />
		</linearGradient>
		<linearGradient
			id="paint7_linear_1615_14077"
			x1="1648.51"
			y1="8.09058"
			x2="1886.51"
			y2="1300.09"
			gradientUnits="userSpaceOnUse"
		>
			<stop stop-color="#626262" stop-opacity="0.2" />
			<stop offset="1" stop-color="#626262" stop-opacity="0.7" />
		</linearGradient>
		<linearGradient
			id="paint8_linear_1615_14077"
			x1="0"
			y1="520.485"
			x2="820"
			y2="520.485"
			gradientUnits="userSpaceOnUse"
		>
			<stop stop-color="#626262" stop-opacity="0.7" />
			<stop offset="1" stop-color="#626262" stop-opacity="0.2" />
		</linearGradient>
	</defs>
</svg>
