<svg  viewBox="0 0 1888 1462" fill="none" xmlns="http://www.w3.org/2000/svg">
	<path
		d="M940.881 491.931C943.743 490.347 947.218 490.347 950.08 491.931L1744.6 931.545C1751.13 935.16 1751.13 944.554 1744.6 948.169L950.08 1387.78C947.218 1389.37 943.743 1389.37 940.881 1387.78L146.364 948.169C139.83 944.554 139.83 935.16 146.364 931.545L940.881 491.931Z"
		fill="#3927FF"
		fill-opacity="0.2"
		stroke="white"
	/>
	<rect x="284.312" y="817.653" width="1320.86" height="133.313" rx="10" fill="#5A27FF" />
	<path
		d="M940.142 448.974C943.004 447.391 946.478 447.391 949.34 448.974L1821.6 931.545C1828.13 935.16 1828.13 944.555 1821.6 948.17L949.34 1430.74C946.478 1432.32 943.004 1432.32 940.142 1430.74L67.8862 948.17C61.3515 944.555 61.3515 935.16 67.8862 931.545L940.142 448.974Z"
		stroke="black"
		stroke-opacity="0.5"
	/>
	<path
		d="M939.402 420.829C942.263 419.246 945.737 419.246 948.598 420.829L1871.94 931.544C1878.47 935.159 1878.47 944.555 1871.94 948.17L948.598 1458.89C945.737 1460.47 942.263 1460.47 939.402 1458.89L16.0625 948.17C9.52669 944.555 9.52669 935.159 16.0625 931.544L939.402 420.829Z"
		stroke="black"
		stroke-opacity="0.2"
	/>
	<path
		d="M940.64 568.52C943.652 566.852 947.311 566.852 950.324 568.52L1604.17 930.367C1611.05 934.173 1611.05 944.06 1604.17 947.866L950.324 1309.71C947.311 1311.38 943.652 1311.38 940.64 1309.71L286.794 947.866C279.917 944.06 279.917 934.173 286.794 930.367L940.64 568.52Z"
		fill="#5A27FF"
	/>
	<path
		d="M939.16 455.943C942.173 454.277 945.83 454.277 948.843 455.943L1604.17 818.532C1611.04 822.338 1611.04 832.226 1604.17 836.032L948.843 1198.62C945.83 1200.29 942.172 1200.29 939.16 1198.62L283.838 836.032C276.959 832.226 276.959 822.338 283.838 818.532L939.16 455.943Z"
		fill="white"
	/>
	<path
		d="M939.16 455.943C942.173 454.277 945.83 454.277 948.843 455.943L1604.17 818.532C1611.04 822.338 1611.04 832.226 1604.17 836.032L948.843 1198.62C945.83 1200.29 942.172 1200.29 939.16 1198.62L283.838 836.032C276.959 832.226 276.959 822.338 283.838 818.532L939.16 455.943Z"
		fill="#2200CE"
	/>
	<path
		d="M943.604 524.074C946.614 522.411 950.267 522.411 953.277 524.074L1193.96 657.072C1200.84 660.876 1200.84 670.773 1193.96 674.577L953.277 807.574C950.267 809.237 946.614 809.237 943.604 807.574L702.921 674.577C696.037 670.773 696.037 660.876 702.921 657.072L943.604 524.074Z"
		fill="#2B00D8"
	/>
	<rect x="701.891" y="579.171" width="491.62" height="97.7629" rx="10" fill="#2B00D8" />
	<path
		d="M942.123 448.531C945.133 446.867 948.787 446.867 951.797 448.531L1192.48 581.528C1199.36 585.332 1199.36 595.229 1192.48 599.033L951.797 732.03C948.787 733.694 945.133 733.694 942.123 732.03L701.441 599.033C694.556 595.229 694.556 585.332 701.441 581.528L942.123 448.531Z"
		fill="white"
	/>
	<path
		d="M942.123 448.531C945.133 446.867 948.787 446.867 951.797 448.531L1192.48 581.528C1199.36 585.332 1199.36 595.229 1192.48 599.033L951.797 732.03C948.787 733.694 945.133 733.694 942.123 732.03L701.441 599.033C694.556 595.229 694.556 585.332 701.441 581.528L942.123 448.531Z"
		fill="#1C00A9"
	/>
	<path
		fill-rule="evenodd"
		clip-rule="evenodd"
		d="M696.078 591.849C696.527 594.715 698.206 597.414 701.117 599.023L941.614 732.01C944.625 733.675 948.281 733.675 951.292 732.01L1191.79 599.023C1194.7 597.414 1196.38 594.715 1196.83 591.849L951.208 724.613C948.24 726.217 944.665 726.217 941.697 724.613L696.078 591.849Z"
		fill="white"
	/>
	<path
		fill-rule="evenodd"
		clip-rule="evenodd"
		d="M696.078 591.849C696.527 594.715 698.206 597.414 701.117 599.023L941.614 732.01C944.625 733.675 948.281 733.675 951.292 732.01L1191.79 599.023C1194.7 597.414 1196.38 594.715 1196.83 591.849L951.208 724.613C948.24 726.217 944.665 726.217 941.697 724.613L696.078 591.849Z"
		fill="white"
	/>
	<path
		d="M943.604 417.424C946.614 415.761 950.267 415.761 953.277 417.424L1193.96 550.421C1200.84 554.226 1200.84 564.122 1193.96 567.927L953.277 700.924C950.267 702.587 946.614 702.587 943.604 700.924L702.921 567.927C696.037 564.122 696.037 554.226 702.921 550.421L943.604 417.424Z"
		fill="#2B00D8"
	/>
	<rect x="701.891" y="472.521" width="491.62" height="97.7629" rx="10" fill="#2B00D8" />
	<path
		d="M942.123 341.88C945.133 340.217 948.787 340.217 951.797 341.88L1192.48 474.877C1199.36 478.682 1199.36 488.578 1192.48 492.383L951.797 625.38C948.787 627.043 945.133 627.043 942.123 625.38L701.441 492.383C694.556 488.578 694.556 478.682 701.441 474.877L942.123 341.88Z"
		fill="white"
	/>
	<path
		d="M942.123 341.88C945.133 340.217 948.787 340.217 951.797 341.88L1192.48 474.877C1199.36 478.682 1199.36 488.578 1192.48 492.383L951.797 625.38C948.787 627.043 945.133 627.043 942.123 625.38L701.441 492.383C694.556 488.578 694.556 478.682 701.441 474.877L942.123 341.88Z"
		fill="#1C00A9"
	/>
	<path
		fill-rule="evenodd"
		clip-rule="evenodd"
		d="M696.078 485.199C696.527 488.065 698.206 490.763 701.117 492.373L941.614 625.36C944.625 627.025 948.281 627.025 951.292 625.36L1191.79 492.373C1194.7 490.763 1196.38 488.065 1196.83 485.198L951.208 617.963C948.24 619.567 944.665 619.567 941.697 617.963L696.078 485.199Z"
		fill="white"
	/>
	<path
		fill-rule="evenodd"
		clip-rule="evenodd"
		d="M696.078 485.199C696.527 488.065 698.206 490.763 701.117 492.373L941.614 625.36C944.625 627.025 948.281 627.025 951.292 625.36L1191.79 492.373C1194.7 490.763 1196.38 488.065 1196.83 485.198L951.208 617.963C948.24 619.567 944.665 619.567 941.697 617.963L696.078 485.199Z"
		fill="white"
	/>
	<path
		d="M942.123 310.774C945.133 309.11 948.787 309.11 951.797 310.774L1192.48 443.771C1199.36 447.575 1199.36 457.472 1192.48 461.276L951.797 594.273C948.787 595.937 945.133 595.937 942.123 594.273L701.441 461.276C694.556 457.472 694.556 447.575 701.441 443.771L942.123 310.774Z"
		fill="#2B00D8"
	/>
	<rect x="700.41" y="365.87" width="491.62" height="97.7629" rx="10" fill="#2B00D8" />
	<path
		d="M940.643 235.23C943.653 233.567 947.306 233.567 950.316 235.23L1191 368.227C1197.88 372.031 1197.88 381.928 1191 385.732L950.316 518.729C947.306 520.393 943.653 520.393 940.643 518.729L699.961 385.732C693.076 381.928 693.076 372.031 699.96 368.227L940.643 235.23Z"
		fill="white"
	/>
	<path
		d="M940.643 235.23C943.653 233.567 947.306 233.567 950.316 235.23L1191 368.227C1197.88 372.031 1197.88 381.928 1191 385.732L950.316 518.729C947.306 520.393 943.653 520.393 940.643 518.729L699.961 385.732C693.076 381.928 693.076 372.031 699.96 368.227L940.643 235.23Z"
		fill="#1C00A9"
	/>
	<path
		fill-rule="evenodd"
		clip-rule="evenodd"
		d="M694.598 378.548C695.046 381.414 696.726 384.113 699.636 385.722L940.133 518.709C943.144 520.374 946.8 520.374 949.811 518.709L1190.31 385.722C1193.22 384.113 1194.9 381.414 1195.35 378.548L949.727 511.313C946.76 512.916 943.184 512.916 940.217 511.313L694.598 378.548Z"
		fill="white"
	/>
	<path
		fill-rule="evenodd"
		clip-rule="evenodd"
		d="M694.598 378.548C695.046 381.414 696.726 384.113 699.636 385.722L940.133 518.709C943.144 520.374 946.8 520.374 949.811 518.709L1190.31 385.722C1193.22 384.113 1194.9 381.414 1195.35 378.548L949.727 511.313C946.76 512.916 943.184 512.916 940.217 511.313L694.598 378.548Z"
		fill="white"
	/>
	<path
		d="M942.123 202.642C945.133 200.979 948.787 200.979 951.797 202.642L1192.48 335.639C1199.36 339.443 1199.36 349.34 1192.48 353.144L951.797 486.142C948.787 487.805 945.133 487.805 942.123 486.142L701.441 353.144C694.556 349.34 694.556 339.443 701.441 335.639L942.123 202.642Z"
		fill="#1C005D"
	/>
	<rect x="700.41" y="257.738" width="491.62" height="97.7629" rx="10" fill="#1C005D" />
	<path
		d="M940.643 127.098C943.653 125.435 947.306 125.435 950.316 127.098L1191 260.095C1197.88 263.899 1197.88 273.796 1191 277.6L950.316 410.598C947.306 412.261 943.653 412.261 940.643 410.598L699.961 277.6C693.076 273.796 693.076 263.9 699.96 260.095L940.643 127.098Z"
		fill="white"
	/>
	<path
		d="M940.643 127.098C943.653 125.435 947.306 125.435 950.316 127.098L1191 260.095C1197.88 263.899 1197.88 273.796 1191 277.6L950.316 410.598C947.306 412.261 943.653 412.261 940.643 410.598L699.961 277.6C693.076 273.796 693.076 263.9 699.96 260.095L940.643 127.098Z"
		fill="#4F25D7"
	/>
	<path
		fill-rule="evenodd"
		clip-rule="evenodd"
		d="M694.598 270.416C695.046 273.283 696.726 275.981 699.636 277.59L940.133 410.577C943.144 412.243 946.8 412.243 949.811 410.577L1190.31 277.59C1193.22 275.981 1194.9 273.282 1195.35 270.416L949.727 403.181C946.76 404.785 943.184 404.785 940.217 403.181L694.598 270.416Z"
		fill="white"
	/>
	<path
		fill-rule="evenodd"
		clip-rule="evenodd"
		d="M694.598 270.416C695.046 273.283 696.726 275.981 699.636 277.59L940.133 410.577C943.144 412.243 946.8 412.243 949.811 410.577L1190.31 277.59C1193.22 275.981 1194.9 273.282 1195.35 270.416L949.727 403.181C946.76 404.785 943.184 404.785 940.217 403.181L694.598 270.416Z"
		fill="white"
	/>
	<path
		d="M940.643 112.285C943.653 110.622 947.306 110.622 950.316 112.285L1191 245.283C1197.88 249.087 1197.88 258.984 1191 262.788L950.316 395.785C947.306 397.448 943.653 397.448 940.643 395.785L699.96 262.788C693.076 258.984 693.076 249.087 699.96 245.283L940.643 112.285Z"
		fill="#2100DF"
	/>
	<path
		d="M939.163 100.435C942.172 98.7721 945.826 98.7721 948.836 100.435L1189.52 233.433C1196.4 237.237 1196.4 247.133 1189.52 250.938L948.836 383.935C945.826 385.598 942.172 385.598 939.163 383.935L698.48 250.938C691.595 247.133 691.595 237.237 698.48 233.433L939.163 100.435Z"
		fill="white"
	/>
	<path
		d="M939.163 100.435C942.172 98.7721 945.826 98.7721 948.836 100.435L1189.52 233.433C1196.4 237.237 1196.4 247.133 1189.52 250.938L948.836 383.935C945.826 385.598 942.172 385.598 939.163 383.935L698.48 250.938C691.595 247.133 691.595 237.237 698.48 233.433L939.163 100.435Z"
		fill="#4A00DF"
	/>
	<g filter="url(#filter0_i_1579_9209)">
		<path
			d="M940.643 131.541C943.653 129.878 947.306 129.878 950.315 131.541L1134.73 233.432C1141.61 237.237 1141.61 247.134 1134.73 250.938L950.315 352.829C947.306 354.492 943.653 354.492 940.643 352.829L756.232 250.938C749.347 247.134 749.347 237.237 756.232 233.432L940.643 131.541Z"
			fill="#1C005D"
		/>
	</g>
	<path
		d="M941.369 132.854C943.927 131.441 947.032 131.441 949.59 132.854L1134 234.745C1139.85 237.979 1139.85 246.392 1134 249.625L949.59 351.516C947.032 352.93 943.927 352.93 941.369 351.516L756.958 249.625C751.105 246.392 751.105 237.979 756.958 234.745L941.369 132.854Z"
		stroke="#2B00D8"
		stroke-width="3"
	/>
	<g filter="url(#filter1_i_1579_9209)">
		<path
			d="M941.384 158.204C944.394 156.541 948.047 156.541 951.057 158.204L1085.86 232.692C1092.75 236.496 1092.75 246.393 1085.86 250.197L951.057 324.685C948.047 326.348 944.394 326.348 941.384 324.685L806.579 250.197C799.694 246.393 799.694 236.496 806.579 232.692L941.384 158.204Z"
			fill="#1C005D"
		/>
	</g>
	<path
		d="M942.11 159.517C944.668 158.103 947.773 158.103 950.332 159.517L1085.14 234.005C1090.99 237.238 1090.99 245.651 1085.14 248.884L950.332 323.372C947.773 324.786 944.668 324.786 942.11 323.372L807.304 248.884C801.452 245.651 801.452 237.238 807.304 234.005L942.11 159.517Z"
		stroke="#AE9AFF"
		stroke-width="3"
	/>
	<g filter="url(#filter2_i_1579_9209)">
		<path
			d="M942.876 180.408C945.88 178.753 949.522 178.753 952.525 180.408L1048.78 233.426C1055.68 237.227 1055.68 247.143 1048.78 250.944L952.525 303.962C949.522 305.617 945.88 305.617 942.876 303.962L846.621 250.944C839.721 247.143 839.721 237.227 846.621 233.426L942.876 180.408Z"
			fill="#1C005D"
		/>
	</g>
	<path
		d="M943.6 181.722C946.153 180.316 949.249 180.316 951.802 181.722L1048.06 234.74C1053.92 237.971 1053.92 246.4 1048.06 249.63L951.802 302.648C949.249 304.055 946.153 304.055 943.6 302.648L847.345 249.63C841.479 246.4 841.479 237.971 847.345 234.74L943.6 181.722Z"
		stroke="#AE9AFF"
		stroke-width="3"
	/>
	<g filter="url(#filter3_i_1579_9209)">
		<path
			d="M940.663 202.617C943.663 200.968 947.298 200.968 950.298 202.617L1011.72 236.384C1018.63 240.183 1018.63 250.112 1011.72 253.911L950.298 287.678C947.298 289.327 943.663 289.327 940.663 287.678L879.238 253.911C872.328 250.112 872.328 240.183 879.238 236.384L940.663 202.617Z"
			fill="#1C005D"
		/>
	</g>
	<path
		d="M941.386 203.932C943.936 202.53 947.025 202.53 949.575 203.932L1011 237.699C1016.87 240.928 1016.87 249.367 1011 252.596L949.575 286.363C947.025 287.765 943.936 287.765 941.386 286.363L879.961 252.596C874.087 249.367 874.087 240.928 879.961 237.699L941.386 203.932Z"
		stroke="#AE9AFF"
		stroke-width="3"
	/>
	<path
		d="M1242.73 681.088C1245.73 679.425 1249.39 679.425 1252.4 681.088L1493.08 814.085C1499.97 817.89 1499.97 827.786 1493.08 831.591L1252.4 964.588C1249.39 966.251 1245.73 966.251 1242.73 964.588L1002.04 831.591C995.158 827.786 995.158 817.89 1002.04 814.085L1242.73 681.088Z"
		fill="#5A27FF"
	/>
	<rect x="1001.01" y="736.185" width="491.62" height="97.7629" rx="10" fill="#5A27FF" />
	<path
		d="M1241.24 605.544C1244.25 603.88 1247.91 603.88 1250.92 605.544L1491.6 738.541C1498.48 742.345 1498.48 752.242 1491.6 756.046L1250.92 889.043C1247.91 890.707 1244.25 890.707 1241.24 889.043L1000.56 756.046C993.677 752.242 993.677 742.345 1000.56 738.541L1241.24 605.544Z"
		fill="white"
	/>
	<path
		d="M1241.24 605.544C1244.25 603.88 1247.91 603.88 1250.92 605.544L1491.6 738.541C1498.48 742.345 1498.48 752.242 1491.6 756.046L1250.92 889.043C1247.91 890.707 1244.25 890.707 1241.24 889.043L1000.56 756.046C993.677 752.242 993.677 742.345 1000.56 738.541L1241.24 605.544Z"
		fill="#2C00DC"
	/>
	<path
		fill-rule="evenodd"
		clip-rule="evenodd"
		d="M995.195 748.862C995.644 751.728 997.323 754.427 1000.23 756.036L1240.73 889.023C1243.74 890.688 1247.4 890.688 1250.41 889.023L1490.91 756.036C1493.82 754.427 1495.5 751.728 1495.94 748.862L1250.32 881.627C1247.36 883.23 1243.78 883.23 1240.81 881.627L995.195 748.862Z"
		fill="white"
	/>
	<path
		fill-rule="evenodd"
		clip-rule="evenodd"
		d="M995.195 748.862C995.644 751.728 997.323 754.427 1000.23 756.036L1240.73 889.023C1243.74 890.688 1247.4 890.688 1250.41 889.023L1490.91 756.036C1493.82 754.427 1495.5 751.728 1495.94 748.862L1250.32 881.627C1247.36 883.23 1243.78 883.23 1240.81 881.627L995.195 748.862Z"
		fill="white"
	/>
	<path
		d="M1241.24 574.438C1244.25 572.775 1247.91 572.775 1250.92 574.438L1491.6 707.435C1498.48 711.239 1498.48 721.136 1491.6 724.94L1250.92 857.938C1247.91 859.601 1244.25 859.601 1241.24 857.938L1000.56 724.94C993.677 721.136 993.677 711.239 1000.56 707.435L1241.24 574.438Z"
		fill="#5A27FF"
	/>
	<path
		d="M1242.73 574.438C1245.73 572.775 1249.39 572.775 1252.4 574.438L1493.08 707.435C1499.97 711.239 1499.97 721.136 1493.08 724.94L1252.4 857.938C1249.39 859.601 1245.73 859.601 1242.73 857.938L1002.04 724.94C995.158 721.136 995.158 711.239 1002.04 707.435L1242.73 574.438Z"
		fill="#5A27FF"
	/>
	<rect x="1001.01" y="629.534" width="491.62" height="97.7629" rx="10" fill="#5A27FF" />
	<path
		d="M1241.24 498.893C1244.25 497.23 1247.91 497.23 1250.92 498.893L1491.6 631.891C1498.48 635.695 1498.48 645.591 1491.6 649.396L1250.92 782.393C1247.91 784.056 1244.25 784.056 1241.24 782.393L1000.56 649.396C993.677 645.591 993.677 635.695 1000.56 631.891L1241.24 498.893Z"
		fill="white"
	/>
	<path
		d="M1241.24 498.893C1244.25 497.23 1247.91 497.23 1250.92 498.893L1491.6 631.891C1498.48 635.695 1498.48 645.591 1491.6 649.396L1250.92 782.393C1247.91 784.056 1244.25 784.056 1241.24 782.393L1000.56 649.396C993.677 645.591 993.677 635.695 1000.56 631.891L1241.24 498.893Z"
		fill="#2C00DC"
	/>
	<path
		fill-rule="evenodd"
		clip-rule="evenodd"
		d="M995.195 642.212C995.644 645.078 997.323 647.776 1000.23 649.386L1240.73 782.373C1243.74 784.038 1247.4 784.038 1250.41 782.373L1490.91 649.386C1493.82 647.776 1495.5 645.078 1495.94 642.211L1250.32 774.976C1247.36 776.58 1243.78 776.58 1240.81 774.976L995.195 642.212Z"
		fill="white"
	/>
	<path
		fill-rule="evenodd"
		clip-rule="evenodd"
		d="M995.195 642.212C995.644 645.078 997.323 647.776 1000.23 649.386L1240.73 782.373C1243.74 784.038 1247.4 784.038 1250.41 782.373L1490.91 649.386C1493.82 647.776 1495.5 645.078 1495.94 642.211L1250.32 774.976C1247.36 776.58 1243.78 776.58 1240.81 774.976L995.195 642.212Z"
		fill="white"
	/>
	<path
		d="M1241.24 467.787C1244.25 466.124 1247.91 466.124 1250.92 467.787L1491.6 600.784C1498.48 604.588 1498.48 614.485 1491.6 618.289L1250.92 751.287C1247.91 752.95 1244.25 752.95 1241.24 751.287L1000.56 618.289C993.677 614.485 993.677 604.588 1000.56 600.784L1241.24 467.787Z"
		fill="#5A27FF"
	/>
	<path
		d="M1241.24 467.787C1244.25 466.124 1247.91 466.124 1250.92 467.787L1491.6 600.784C1498.48 604.588 1498.48 614.485 1491.6 618.289L1250.92 751.287C1247.91 752.95 1244.25 752.95 1241.24 751.287L1000.56 618.289C993.677 614.485 993.677 604.588 1000.56 600.784L1241.24 467.787Z"
		fill="#5A27FF"
	/>
	<rect x="999.531" y="522.883" width="491.62" height="97.7629" rx="10" fill="#5A27FF" />
	<path
		d="M1239.76 392.243C1242.77 390.58 1246.43 390.58 1249.44 392.243L1490.12 525.24C1497 529.045 1497 538.941 1490.12 542.745L1249.44 675.743C1246.43 677.406 1242.77 677.406 1239.76 675.743L999.082 542.745C992.197 538.941 992.197 529.045 999.082 525.24L1239.76 392.243Z"
		fill="white"
	/>
	<path
		d="M1239.76 392.243C1242.77 390.58 1246.43 390.58 1249.44 392.243L1490.12 525.24C1497 529.045 1497 538.941 1490.12 542.745L1249.44 675.743C1246.43 677.406 1242.77 677.406 1239.76 675.743L999.082 542.745C992.197 538.941 992.197 529.045 999.082 525.24L1239.76 392.243Z"
		fill="#2C00DC"
	/>
	<path
		fill-rule="evenodd"
		clip-rule="evenodd"
		d="M993.715 535.561C994.163 538.428 995.843 541.126 998.753 542.735L1239.25 675.722C1242.26 677.388 1245.92 677.388 1248.93 675.722L1489.43 542.735C1492.34 541.126 1494.02 538.427 1494.46 535.561L1248.84 668.326C1245.88 669.93 1242.3 669.93 1239.33 668.326L993.715 535.561Z"
		fill="white"
	/>
	<path
		fill-rule="evenodd"
		clip-rule="evenodd"
		d="M993.715 535.561C994.163 538.428 995.843 541.126 998.753 542.735L1239.25 675.722C1242.26 677.388 1245.92 677.388 1248.93 675.722L1489.43 542.735C1492.34 541.126 1494.02 538.427 1494.46 535.561L1248.84 668.326C1245.88 669.93 1242.3 669.93 1239.33 668.326L993.715 535.561Z"
		fill="white"
	/>
	<path
		d="M1239.76 383.355C1242.77 381.692 1246.43 381.692 1249.44 383.355L1490.12 516.352C1497 520.157 1497 530.053 1490.12 533.858L1249.44 666.855C1246.43 668.518 1242.77 668.518 1239.76 666.855L999.082 533.858C992.197 530.053 992.197 520.157 999.082 516.353L1239.76 383.355Z"
		fill="white"
	/>
	<path
		d="M1239.76 383.355C1242.77 381.692 1246.43 381.692 1249.44 383.355L1490.12 516.352C1497 520.157 1497 530.053 1490.12 533.858L1249.44 666.855C1246.43 668.518 1242.77 668.518 1239.76 666.855L999.082 533.858C992.197 530.053 992.197 520.157 999.082 516.353L1239.76 383.355Z"
		fill="#1C00A9"
	/>
	<path
		d="M1239.76 368.543C1242.77 366.88 1246.43 366.88 1249.44 368.543L1490.12 501.54C1497 505.344 1497 515.241 1490.12 519.045L1249.44 652.042C1246.43 653.706 1242.77 653.706 1239.76 652.042L999.082 519.045C992.197 515.241 992.197 505.344 999.082 501.54L1239.76 368.543Z"
		fill="#2100DF"
	/>
	<rect x="998.047" y="484.371" width="491.62" height="37.0314" rx="10" fill="#2100DF" />
	<path
		d="M1238.28 356.693C1241.29 355.029 1244.95 355.029 1247.96 356.693L1488.64 489.69C1495.52 493.494 1495.52 503.391 1488.64 507.195L1247.96 640.192C1244.95 641.856 1241.29 641.856 1238.28 640.192L997.601 507.195C990.717 503.391 990.716 493.494 997.601 489.69L1238.28 356.693Z"
		fill="white"
	/>
	<path
		d="M1238.28 356.693C1241.29 355.029 1244.95 355.029 1247.96 356.693L1488.64 489.69C1495.52 493.494 1495.52 503.391 1488.64 507.195L1247.96 640.192C1244.95 641.856 1241.29 641.856 1238.28 640.192L997.601 507.195C990.717 503.391 990.716 493.494 997.601 489.69L1238.28 356.693Z"
		fill="#2100DF"
	/>
	<path
		d="M1242.73 681.088C1245.73 679.425 1249.39 679.425 1252.4 681.088L1493.08 814.085C1499.97 817.89 1499.97 827.786 1493.08 831.591L1252.4 964.588C1249.39 966.251 1245.73 966.251 1242.73 964.588L1002.04 831.591C995.158 827.786 995.158 817.89 1002.04 814.085L1242.73 681.088Z"
		fill="#4D4D4D"
	/>
	<rect x="1001.01" y="736.185" width="491.62" height="97.7629" rx="10" fill="#4D4D4D" />
	<path
		d="M1241.24 605.544C1244.25 603.88 1247.91 603.88 1250.92 605.544L1491.6 738.541C1498.48 742.345 1498.48 752.242 1491.6 756.046L1250.92 889.043C1247.91 890.707 1244.25 890.707 1241.24 889.043L1000.56 756.046C993.677 752.242 993.677 742.345 1000.56 738.541L1241.24 605.544Z"
		fill="white"
	/>
	<path
		d="M1241.24 605.544C1244.25 603.88 1247.91 603.88 1250.92 605.544L1491.6 738.541C1498.48 742.345 1498.48 752.242 1491.6 756.046L1250.92 889.043C1247.91 890.707 1244.25 890.707 1241.24 889.043L1000.56 756.046C993.677 752.242 993.677 742.345 1000.56 738.541L1241.24 605.544Z"
		fill="#3C3C3C"
	/>
	<path
		fill-rule="evenodd"
		clip-rule="evenodd"
		d="M995.195 748.862C995.644 751.728 997.323 754.427 1000.23 756.036L1240.73 889.023C1243.74 890.688 1247.4 890.688 1250.41 889.023L1490.91 756.036C1493.82 754.427 1495.5 751.728 1495.94 748.862L1250.32 881.627C1247.36 883.23 1243.78 883.23 1240.81 881.627L995.195 748.862Z"
		fill="white"
	/>
	<path
		fill-rule="evenodd"
		clip-rule="evenodd"
		d="M995.195 748.862C995.644 751.728 997.323 754.427 1000.23 756.036L1240.73 889.023C1243.74 890.688 1247.4 890.688 1250.41 889.023L1490.91 756.036C1493.82 754.427 1495.5 751.728 1495.94 748.862L1250.32 881.627C1247.36 883.23 1243.78 883.23 1240.81 881.627L995.195 748.862Z"
		fill="white"
	/>
	<path
		d="M1242.73 574.438C1245.73 572.775 1249.39 572.775 1252.4 574.438L1493.08 707.435C1499.97 711.239 1499.97 721.136 1493.08 724.94L1252.4 857.938C1249.39 859.601 1245.73 859.601 1242.73 857.938L1002.04 724.94C995.158 721.136 995.158 711.239 1002.04 707.435L1242.73 574.438Z"
		fill="#4D4D4D"
	/>
	<rect x="1001.01" y="629.534" width="491.62" height="97.7629" rx="10" fill="#4D4D4D" />
	<path
		d="M1241.24 498.893C1244.25 497.23 1247.91 497.23 1250.92 498.893L1491.6 631.891C1498.48 635.695 1498.48 645.591 1491.6 649.396L1250.92 782.393C1247.91 784.056 1244.25 784.056 1241.24 782.393L1000.56 649.396C993.677 645.591 993.677 635.695 1000.56 631.891L1241.24 498.893Z"
		fill="white"
	/>
	<path
		d="M1241.24 498.893C1244.25 497.23 1247.91 497.23 1250.92 498.893L1491.6 631.891C1498.48 635.695 1498.48 645.591 1491.6 649.396L1250.92 782.393C1247.91 784.056 1244.25 784.056 1241.24 782.393L1000.56 649.396C993.677 645.591 993.677 635.695 1000.56 631.891L1241.24 498.893Z"
		fill="#3C3C3C"
	/>
	<path
		fill-rule="evenodd"
		clip-rule="evenodd"
		d="M995.195 642.212C995.644 645.078 997.323 647.776 1000.23 649.386L1240.73 782.373C1243.74 784.038 1247.4 784.038 1250.41 782.373L1490.91 649.386C1493.82 647.776 1495.5 645.078 1495.94 642.211L1250.32 774.976C1247.36 776.58 1243.78 776.58 1240.81 774.976L995.195 642.212Z"
		fill="white"
	/>
	<path
		fill-rule="evenodd"
		clip-rule="evenodd"
		d="M995.195 642.212C995.644 645.078 997.323 647.776 1000.23 649.386L1240.73 782.373C1243.74 784.038 1247.4 784.038 1250.41 782.373L1490.91 649.386C1493.82 647.776 1495.5 645.078 1495.94 642.211L1250.32 774.976C1247.36 776.58 1243.78 776.58 1240.81 774.976L995.195 642.212Z"
		fill="white"
	/>
	<path
		d="M1241.24 467.787C1244.25 466.124 1247.91 466.124 1250.92 467.787L1491.6 600.784C1498.48 604.588 1498.48 614.485 1491.6 618.289L1250.92 751.287C1247.91 752.95 1244.25 752.95 1241.24 751.287L1000.56 618.289C993.677 614.485 993.677 604.588 1000.56 600.784L1241.24 467.787Z"
		fill="#5A27FF"
	/>
	<path
		d="M1241.24 467.787C1244.25 466.124 1247.91 466.124 1250.92 467.787L1491.6 600.784C1498.48 604.588 1498.48 614.485 1491.6 618.289L1250.92 751.287C1247.91 752.95 1244.25 752.95 1241.24 751.287L1000.56 618.289C993.677 614.485 993.677 604.588 1000.56 600.784L1241.24 467.787Z"
		fill="#4D4D4D"
	/>
	<rect x="999.531" y="522.883" width="491.62" height="97.7629" rx="10" fill="#4D4D4D" />
	<path
		d="M1239.76 392.243C1242.77 390.58 1246.43 390.58 1249.44 392.243L1490.12 525.24C1497 529.045 1497 538.941 1490.12 542.745L1249.44 675.743C1246.43 677.406 1242.77 677.406 1239.76 675.743L999.082 542.745C992.197 538.941 992.197 529.045 999.082 525.24L1239.76 392.243Z"
		fill="white"
	/>
	<path
		d="M1239.76 392.243C1242.77 390.58 1246.43 390.58 1249.44 392.243L1490.12 525.24C1497 529.045 1497 538.941 1490.12 542.745L1249.44 675.743C1246.43 677.406 1242.77 677.406 1239.76 675.743L999.082 542.745C992.197 538.941 992.197 529.045 999.082 525.24L1239.76 392.243Z"
		fill="#3C3C3C"
	/>
	<path
		fill-rule="evenodd"
		clip-rule="evenodd"
		d="M993.715 535.561C994.163 538.428 995.843 541.126 998.753 542.735L1239.25 675.722C1242.26 677.388 1245.92 677.388 1248.93 675.722L1489.43 542.735C1492.34 541.126 1494.02 538.427 1494.46 535.561L1248.84 668.326C1245.88 669.93 1242.3 669.93 1239.33 668.326L993.715 535.561Z"
		fill="white"
	/>
	<path
		fill-rule="evenodd"
		clip-rule="evenodd"
		d="M993.715 535.561C994.163 538.428 995.843 541.126 998.753 542.735L1239.25 675.722C1242.26 677.388 1245.92 677.388 1248.93 675.722L1489.43 542.735C1492.34 541.126 1494.02 538.427 1494.46 535.561L1248.84 668.326C1245.88 669.93 1242.3 669.93 1239.33 668.326L993.715 535.561Z"
		fill="white"
	/>
	<path
		d="M1239.76 383.355C1242.77 381.692 1246.43 381.692 1249.44 383.355L1490.12 516.352C1497 520.157 1497 530.053 1490.12 533.858L1249.44 666.855C1246.43 668.518 1242.77 668.518 1239.76 666.855L999.082 533.858C992.197 530.053 992.197 520.157 999.082 516.353L1239.76 383.355Z"
		fill="white"
	/>
	<path
		d="M1239.76 383.355C1242.77 381.692 1246.43 381.692 1249.44 383.355L1490.12 516.352C1497 520.157 1497 530.053 1490.12 533.858L1249.44 666.855C1246.43 668.518 1242.77 668.518 1239.76 666.855L999.082 533.858C992.197 530.053 992.197 520.157 999.082 516.353L1239.76 383.355Z"
		fill="#050069"
	/>
	<path
		d="M1239.76 368.543C1242.77 366.88 1246.43 366.88 1249.44 368.543L1490.12 501.54C1497 505.344 1497 515.241 1490.12 519.045L1249.44 652.042C1246.43 653.706 1242.77 653.706 1239.76 652.042L999.082 519.045C992.197 515.241 992.197 505.344 999.082 501.54L1239.76 368.543Z"
		fill="#3200AF"
	/>
	<rect x="998.047" y="484.371" width="491.62" height="37.0314" rx="10" fill="#3200AF" />
	<path
		d="M1238.28 356.693C1241.29 355.029 1244.95 355.029 1247.96 356.693L1488.64 489.69C1495.52 493.494 1495.52 503.391 1488.64 507.195L1247.96 640.192C1244.95 641.856 1241.29 641.856 1238.28 640.192L997.601 507.195C990.717 503.391 990.716 493.494 997.601 489.69L1238.28 356.693Z"
		fill="white"
	/>
	<path
		d="M1238.28 356.693C1241.29 355.029 1244.95 355.029 1247.96 356.693L1488.64 489.69C1495.52 493.494 1495.52 503.391 1488.64 507.195L1247.96 640.192C1244.95 641.856 1241.29 641.856 1238.28 640.192L997.601 507.195C990.717 503.391 990.716 493.494 997.601 489.69L1238.28 356.693Z"
		fill="#590DF1"
	/>
	<g filter="url(#filter4_i_1579_9209)">
		<path
			d="M1239.76 387.799C1242.77 386.136 1246.43 386.136 1249.44 387.799L1433.85 489.69C1440.73 493.494 1440.73 503.391 1433.85 507.195L1249.44 609.087C1246.43 610.75 1242.77 610.75 1239.76 609.087L1055.35 507.195C1048.47 503.391 1048.47 493.494 1055.35 489.69L1239.76 387.799Z"
			fill="#28225D"
		/>
	</g>
	<path
		d="M1240.49 389.111C1243.05 387.698 1246.15 387.698 1248.71 389.111L1433.12 491.003C1438.97 494.236 1438.97 502.649 1433.12 505.882L1248.71 607.774C1246.15 609.187 1243.05 609.187 1240.49 607.774L1056.08 505.882C1050.23 502.649 1050.23 494.236 1056.08 491.003L1240.49 389.111Z"
		stroke="#5A27FF"
		stroke-width="3"
	/>
	<path
		d="M645.967 681.088C648.977 679.425 652.63 679.425 655.64 681.088L896.323 814.085C903.207 817.89 903.207 827.786 896.323 831.591L655.64 964.588C652.63 966.251 648.977 966.251 645.967 964.588L405.285 831.591C398.4 827.786 398.4 817.89 405.285 814.085L645.967 681.088Z"
		fill="#5A27FF"
	/>
	<rect x="404.254" y="736.185" width="491.62" height="97.7629" rx="10" fill="#5A27FF" />
	<path
		d="M644.487 605.544C647.497 603.88 651.15 603.88 654.16 605.544L894.842 738.541C901.727 742.345 901.727 752.242 894.842 756.046L654.16 889.043C651.15 890.707 647.497 890.707 644.487 889.043L403.804 756.046C396.92 752.242 396.92 742.345 403.804 738.541L644.487 605.544Z"
		fill="white"
	/>
	<path
		d="M644.487 605.544C647.497 603.88 651.15 603.88 654.16 605.544L894.842 738.541C901.727 742.345 901.727 752.242 894.842 756.046L654.16 889.043C651.15 890.707 647.497 890.707 644.487 889.043L403.804 756.046C396.92 752.242 396.92 742.345 403.804 738.541L644.487 605.544Z"
		fill="#2C00DC"
	/>
	<path
		fill-rule="evenodd"
		clip-rule="evenodd"
		d="M398.441 748.862C398.89 751.728 400.569 754.427 403.48 756.036L643.977 889.023C646.988 890.688 650.644 890.688 653.655 889.023L894.152 756.036C897.063 754.427 898.742 751.728 899.191 748.862L653.571 881.627C650.604 883.23 647.028 883.23 644.061 881.627L398.441 748.862Z"
		fill="white"
	/>
	<path
		fill-rule="evenodd"
		clip-rule="evenodd"
		d="M398.441 748.862C398.89 751.728 400.569 754.427 403.48 756.036L643.977 889.023C646.988 890.688 650.644 890.688 653.655 889.023L894.152 756.036C897.063 754.427 898.742 751.728 899.191 748.862L653.571 881.627C650.604 883.23 647.028 883.23 644.061 881.627L398.441 748.862Z"
		fill="white"
	/>
	<path
		d="M645.967 574.438C648.977 572.775 652.63 572.775 655.64 574.438L896.323 707.435C903.207 711.239 903.207 721.136 896.323 724.94L655.64 857.938C652.63 859.601 648.977 859.601 645.967 857.938L405.285 724.94C398.4 721.136 398.4 711.239 405.285 707.435L645.967 574.438Z"
		fill="#5A27FF"
	/>
	<rect x="404.254" y="629.534" width="491.62" height="97.7629" rx="10" fill="#5A27FF" />
	<path
		d="M644.487 498.893C647.497 497.23 651.15 497.23 654.16 498.893L894.842 631.891C901.727 635.695 901.727 645.591 894.842 649.396L654.16 782.393C651.15 784.056 647.497 784.056 644.487 782.393L403.804 649.396C396.92 645.591 396.92 635.695 403.804 631.891L644.487 498.893Z"
		fill="white"
	/>
	<path
		d="M644.487 498.893C647.497 497.23 651.15 497.23 654.16 498.893L894.842 631.891C901.727 635.695 901.727 645.591 894.842 649.396L654.16 782.393C651.15 784.056 647.497 784.056 644.487 782.393L403.804 649.396C396.92 645.591 396.92 635.695 403.804 631.891L644.487 498.893Z"
		fill="#2C00DC"
	/>
	<path
		fill-rule="evenodd"
		clip-rule="evenodd"
		d="M398.441 642.212C398.89 645.078 400.569 647.776 403.48 649.386L643.977 782.373C646.988 784.038 650.644 784.038 653.655 782.373L894.152 649.386C897.063 647.776 898.742 645.078 899.191 642.211L653.571 774.976C650.604 776.58 647.028 776.58 644.061 774.976L398.441 642.212Z"
		fill="white"
	/>
	<path
		fill-rule="evenodd"
		clip-rule="evenodd"
		d="M398.441 642.212C398.89 645.078 400.569 647.776 403.48 649.386L643.977 782.373C646.988 784.038 650.644 784.038 653.655 782.373L894.152 649.386C897.063 647.776 898.742 645.078 899.191 642.211L653.571 774.976C650.604 776.58 647.028 776.58 644.061 774.976L398.441 642.212Z"
		fill="white"
	/>
	<path
		d="M644.487 467.787C647.497 466.124 651.15 466.124 654.16 467.787L894.842 600.784C901.727 604.588 901.727 614.485 894.842 618.289L654.16 751.287C651.15 752.95 647.497 752.95 644.487 751.287L403.804 618.289C396.92 614.485 396.92 604.588 403.804 600.784L644.487 467.787Z"
		fill="#5A27FF"
	/>
	<path
		d="M644.487 467.787C647.497 466.124 651.15 466.124 654.16 467.787L894.842 600.784C901.727 604.588 901.727 614.485 894.842 618.289L654.16 751.287C651.15 752.95 647.497 752.95 644.487 751.287L403.804 618.289C396.92 614.485 396.92 604.588 403.804 600.784L644.487 467.787Z"
		fill="#5A27FF"
	/>
	<rect x="402.773" y="522.883" width="491.62" height="97.7629" rx="10" fill="#5A27FF" />
	<path
		d="M643.006 392.243C646.016 390.58 649.669 390.58 652.679 392.243L893.362 525.24C900.246 529.045 900.246 538.941 893.362 542.745L652.679 675.743C649.669 677.406 646.016 677.406 643.006 675.743L402.324 542.745C395.439 538.941 395.439 529.045 402.324 525.24L643.006 392.243Z"
		fill="white"
	/>
	<path
		d="M643.006 392.243C646.016 390.58 649.669 390.58 652.679 392.243L893.362 525.24C900.246 529.045 900.246 538.941 893.362 542.745L652.679 675.743C649.669 677.406 646.016 677.406 643.006 675.743L402.324 542.745C395.439 538.941 395.439 529.045 402.324 525.24L643.006 392.243Z"
		fill="#2C00DC"
	/>
	<path
		fill-rule="evenodd"
		clip-rule="evenodd"
		d="M396.961 535.561C397.409 538.428 399.089 541.126 401.999 542.735L642.496 675.722C645.508 677.388 649.163 677.388 652.175 675.722L892.672 542.735C895.582 541.126 897.262 538.427 897.71 535.561L652.09 668.326C649.123 669.93 645.547 669.93 642.58 668.326L396.961 535.561Z"
		fill="white"
	/>
	<path
		fill-rule="evenodd"
		clip-rule="evenodd"
		d="M396.961 535.561C397.409 538.428 399.089 541.126 401.999 542.735L642.496 675.722C645.508 677.388 649.163 677.388 652.175 675.722L892.672 542.735C895.582 541.126 897.262 538.427 897.71 535.561L652.09 668.326C649.123 669.93 645.547 669.93 642.58 668.326L396.961 535.561Z"
		fill="white"
	/>
	<path
		d="M644.487 359.656C647.497 357.992 651.15 357.992 654.16 359.656L894.842 492.653C901.727 496.457 901.727 506.354 894.842 510.158L654.16 643.155C651.15 644.818 647.497 644.818 644.487 643.155L403.804 510.158C396.92 506.354 396.92 496.457 403.804 492.653L644.487 359.656Z"
		fill="#5A27FF"
	/>
	<rect x="402.773" y="414.752" width="491.62" height="97.7629" rx="10" fill="#5A27FF" />
	<path
		d="M643.006 284.111C646.016 282.448 649.669 282.448 652.679 284.111L893.362 417.108C900.246 420.913 900.246 430.809 893.362 434.614L652.679 567.611C649.669 569.274 646.016 569.274 643.006 567.611L402.324 434.614C395.439 430.809 395.439 420.913 402.324 417.108L643.006 284.111Z"
		fill="white"
	/>
	<path
		d="M643.006 284.111C646.016 282.448 649.669 282.448 652.679 284.111L893.362 417.108C900.246 420.913 900.246 430.809 893.362 434.614L652.679 567.611C649.669 569.274 646.016 569.274 643.006 567.611L402.324 434.614C395.439 430.809 395.439 420.913 402.324 417.108L643.006 284.111Z"
		fill="#1C00A9"
	/>
	<path
		fill-rule="evenodd"
		clip-rule="evenodd"
		d="M396.961 427.43C397.409 430.296 399.089 432.994 401.999 434.604L642.496 567.591C645.508 569.256 649.163 569.256 652.175 567.591L892.672 434.604C895.582 432.994 897.262 430.296 897.71 427.429L652.09 560.194C649.123 561.798 645.547 561.798 642.58 560.194L396.961 427.43Z"
		fill="white"
	/>
	<path
		fill-rule="evenodd"
		clip-rule="evenodd"
		d="M396.961 427.43C397.409 430.296 399.089 432.994 401.999 434.604L642.496 567.591C645.508 569.256 649.163 569.256 652.175 567.591L892.672 434.604C895.582 432.994 897.262 430.296 897.71 427.429L652.09 560.194C649.123 561.798 645.547 561.798 642.58 560.194L396.961 427.43Z"
		fill="white"
	/>
	<path
		d="M643.006 269.299C646.016 267.635 649.669 267.635 652.679 269.299L893.362 402.296C900.246 406.1 900.246 415.997 893.362 419.801L652.679 552.798C649.669 554.462 646.016 554.462 643.006 552.798L402.324 419.801C395.439 415.997 395.439 406.1 402.324 402.296L643.006 269.299Z"
		fill="#2100DF"
	/>
	<path
		d="M641.526 257.448C644.536 255.785 648.189 255.785 651.199 257.448L891.881 390.446C898.766 394.25 898.766 404.147 891.881 407.951L651.199 540.948C648.189 542.611 644.536 542.611 641.526 540.948L400.843 407.951C393.959 404.147 393.959 394.25 400.843 390.446L641.526 257.448Z"
		fill="white"
	/>
	<path
		d="M641.526 257.448C644.536 255.785 648.189 255.785 651.199 257.448L891.881 390.446C898.766 394.25 898.766 404.147 891.881 407.951L651.199 540.948C648.189 542.611 644.536 542.611 641.526 540.948L400.843 407.951C393.959 404.147 393.959 394.25 400.843 390.446L641.526 257.448Z"
		fill="#2100DF"
	/>
	<g filter="url(#filter5_i_1579_9209)">
		<path
			d="M642.274 306.321C645.28 304.663 648.926 304.663 651.932 306.321L804.476 390.442C811.37 394.244 811.37 404.153 804.476 407.956L651.932 492.077C648.926 493.734 645.28 493.734 642.274 492.077L489.731 407.956C482.836 404.153 482.836 394.244 489.731 390.442L642.274 306.321Z"
			fill="white"
		/>
		<path
			d="M642.274 306.321C645.28 304.663 648.926 304.663 651.932 306.321L804.476 390.442C811.37 394.244 811.37 404.153 804.476 407.956L651.932 492.077C648.926 493.734 645.28 493.734 642.274 492.077L489.731 407.956C482.836 404.153 482.836 394.244 489.731 390.442L642.274 306.321Z"
			fill="#36225D"
		/>
	</g>
	<path
		d="M645.967 681.088C648.977 679.425 652.63 679.425 655.64 681.088L896.323 814.085C903.207 817.89 903.207 827.786 896.323 831.591L655.64 964.588C652.63 966.251 648.977 966.251 645.967 964.588L405.285 831.591C398.4 827.786 398.4 817.89 405.285 814.085L645.967 681.088Z"
		fill="#262626"
	/>
	<rect x="404.254" y="736.185" width="491.62" height="97.7629" rx="10" fill="#262626" />
	<path
		d="M644.487 605.544C647.497 603.88 651.15 603.88 654.16 605.544L894.842 738.541C901.727 742.345 901.727 752.242 894.842 756.046L654.16 889.043C651.15 890.707 647.497 890.707 644.487 889.043L403.804 756.046C396.92 752.242 396.92 742.345 403.804 738.541L644.487 605.544Z"
		fill="white"
	/>
	<path
		d="M644.487 605.544C647.497 603.88 651.15 603.88 654.16 605.544L894.842 738.541C901.727 742.345 901.727 752.242 894.842 756.046L654.16 889.043C651.15 890.707 647.497 890.707 644.487 889.043L403.804 756.046C396.92 752.242 396.92 742.345 403.804 738.541L644.487 605.544Z"
		fill="#1A1A1A"
	/>
	<path
		fill-rule="evenodd"
		clip-rule="evenodd"
		d="M398.441 748.862C398.89 751.728 400.569 754.427 403.48 756.036L643.977 889.023C646.988 890.688 650.644 890.688 653.655 889.023L894.152 756.036C897.063 754.427 898.742 751.728 899.191 748.862L653.571 881.627C650.604 883.23 647.028 883.23 644.061 881.627L398.441 748.862Z"
		fill="white"
	/>
	<path
		fill-rule="evenodd"
		clip-rule="evenodd"
		d="M398.441 748.862C398.89 751.728 400.569 754.427 403.48 756.036L643.977 889.023C646.988 890.688 650.644 890.688 653.655 889.023L894.152 756.036C897.063 754.427 898.742 751.728 899.191 748.862L653.571 881.627C650.604 883.23 647.028 883.23 644.061 881.627L398.441 748.862Z"
		fill="white"
	/>
	<path
		d="M645.967 574.438C648.977 572.775 652.63 572.775 655.64 574.438L896.323 707.435C903.207 711.239 903.207 721.136 896.323 724.94L655.64 857.938C652.63 859.601 648.977 859.601 645.967 857.938L405.285 724.94C398.4 721.136 398.4 711.239 405.285 707.435L645.967 574.438Z"
		fill="#262626"
	/>
	<rect x="404.254" y="629.534" width="491.62" height="97.7629" rx="10" fill="#262626" />
	<path
		d="M644.487 498.893C647.497 497.23 651.15 497.23 654.16 498.893L894.842 631.891C901.727 635.695 901.727 645.591 894.842 649.396L654.16 782.393C651.15 784.056 647.497 784.056 644.487 782.393L403.804 649.396C396.92 645.591 396.92 635.695 403.804 631.891L644.487 498.893Z"
		fill="white"
	/>
	<path
		d="M644.487 498.893C647.497 497.23 651.15 497.23 654.16 498.893L894.842 631.891C901.727 635.695 901.727 645.591 894.842 649.396L654.16 782.393C651.15 784.056 647.497 784.056 644.487 782.393L403.804 649.396C396.92 645.591 396.92 635.695 403.804 631.891L644.487 498.893Z"
		fill="#1A1A1A"
	/>
	<path
		fill-rule="evenodd"
		clip-rule="evenodd"
		d="M398.441 642.212C398.89 645.078 400.569 647.776 403.48 649.386L643.977 782.373C646.988 784.038 650.644 784.038 653.655 782.373L894.152 649.386C897.063 647.776 898.742 645.078 899.191 642.211L653.571 774.976C650.604 776.58 647.028 776.58 644.061 774.976L398.441 642.212Z"
		fill="white"
	/>
	<path
		fill-rule="evenodd"
		clip-rule="evenodd"
		d="M398.441 642.212C398.89 645.078 400.569 647.776 403.48 649.386L643.977 782.373C646.988 784.038 650.644 784.038 653.655 782.373L894.152 649.386C897.063 647.776 898.742 645.078 899.191 642.211L653.571 774.976C650.604 776.58 647.028 776.58 644.061 774.976L398.441 642.212Z"
		fill="white"
	/>
	<path
		d="M644.487 467.787C647.497 466.124 651.15 466.124 654.16 467.787L894.842 600.784C901.727 604.588 901.727 614.485 894.842 618.289L654.16 751.287C651.15 752.95 647.497 752.95 644.487 751.287L403.804 618.289C396.92 614.485 396.92 604.588 403.804 600.784L644.487 467.787Z"
		fill="#5A27FF"
	/>
	<path
		d="M644.487 467.787C647.497 466.124 651.15 466.124 654.16 467.787L894.842 600.784C901.727 604.588 901.727 614.485 894.842 618.289L654.16 751.287C651.15 752.95 647.497 752.95 644.487 751.287L403.804 618.289C396.92 614.485 396.92 604.588 403.804 600.784L644.487 467.787Z"
		fill="#262626"
	/>
	<rect x="402.773" y="522.883" width="491.62" height="97.7629" rx="10" fill="#262626" />
	<path
		d="M643.006 392.243C646.016 390.58 649.669 390.58 652.679 392.243L893.362 525.24C900.246 529.045 900.246 538.941 893.362 542.745L652.679 675.743C649.669 677.406 646.016 677.406 643.006 675.743L402.324 542.745C395.439 538.941 395.439 529.045 402.324 525.24L643.006 392.243Z"
		fill="white"
	/>
	<path
		d="M643.006 392.243C646.016 390.58 649.669 390.58 652.679 392.243L893.362 525.24C900.246 529.045 900.246 538.941 893.362 542.745L652.679 675.743C649.669 677.406 646.016 677.406 643.006 675.743L402.324 542.745C395.439 538.941 395.439 529.045 402.324 525.24L643.006 392.243Z"
		fill="#1A1A1A"
	/>
	<path
		fill-rule="evenodd"
		clip-rule="evenodd"
		d="M396.961 535.561C397.409 538.428 399.089 541.126 401.999 542.735L642.496 675.722C645.508 677.388 649.163 677.388 652.175 675.722L892.672 542.735C895.582 541.126 897.262 538.427 897.71 535.561L652.09 668.326C649.123 669.93 645.547 669.93 642.58 668.326L396.961 535.561Z"
		fill="white"
	/>
	<path
		fill-rule="evenodd"
		clip-rule="evenodd"
		d="M396.961 535.561C397.409 538.428 399.089 541.126 401.999 542.735L642.496 675.722C645.508 677.388 649.163 677.388 652.175 675.722L892.672 542.735C895.582 541.126 897.262 538.427 897.71 535.561L652.09 668.326C649.123 669.93 645.547 669.93 642.58 668.326L396.961 535.561Z"
		fill="white"
	/>
	<path
		d="M644.487 359.656C647.497 357.992 651.15 357.992 654.16 359.656L894.842 492.653C901.727 496.457 901.727 506.354 894.842 510.158L654.16 643.155C651.15 644.818 647.497 644.818 644.487 643.155L403.804 510.158C396.92 506.354 396.92 496.457 403.804 492.653L644.487 359.656Z"
		fill="#B8B8B8"
	/>
	<rect x="402.773" y="414.752" width="491.62" height="97.7629" rx="10" fill="#B8B8B8" />
	<path
		d="M643.025 284.087C646.025 282.438 649.66 282.438 652.66 284.087L893.261 416.357C900.171 420.156 900.171 430.085 893.261 433.883L652.66 566.154C649.66 567.803 646.025 567.803 643.025 566.154L402.424 433.883C395.515 430.085 395.514 420.156 402.424 416.357L643.025 284.087Z"
		fill="white"
	/>
	<path
		d="M643.025 284.087C646.025 282.438 649.66 282.438 652.66 284.087L893.261 416.357C900.171 420.156 900.171 430.085 893.261 433.883L652.66 566.154C649.66 567.803 646.025 567.803 643.025 566.154L402.424 433.883C395.515 430.085 395.514 420.156 402.424 416.357L643.025 284.087Z"
		fill="#1C00A9"
	/>
	<path
		fill-rule="evenodd"
		clip-rule="evenodd"
		d="M396.961 427.43C397.409 430.296 399.089 432.994 401.999 434.604L642.496 567.591C645.508 569.256 649.163 569.256 652.175 567.591L892.672 434.604C895.582 432.994 897.262 430.296 897.71 427.429L652.09 560.194C649.123 561.798 645.547 561.798 642.58 560.194L396.961 427.43Z"
		fill="white"
	/>
	<path
		fill-rule="evenodd"
		clip-rule="evenodd"
		d="M396.961 427.43C397.409 430.296 399.089 432.994 401.999 434.604L642.496 567.591C645.508 569.256 649.163 569.256 652.175 567.591L892.672 434.604C895.582 432.994 897.262 430.296 897.71 427.429L652.09 560.194C649.123 561.798 645.547 561.798 642.58 560.194L396.961 427.43Z"
		fill="white"
	/>
	<path
		d="M643.006 269.299C646.016 267.635 649.669 267.635 652.679 269.299L893.362 402.296C900.246 406.1 900.246 415.997 893.362 419.801L652.679 552.798C649.669 554.462 646.016 554.462 643.006 552.798L402.324 419.801C395.439 415.997 395.439 406.1 402.324 402.296L643.006 269.299Z"
		fill="#4300DF"
	/>
	<rect x="395" y="390" width="503" height="30" rx="10" fill="#4300DF" />
	<g filter="url(#filter6_d_1579_9209)">
		<path
			d="M641.526 257.448C644.536 255.785 648.189 255.785 651.199 257.448L891.881 390.446C898.766 394.25 898.766 404.147 891.881 407.951L651.199 540.948C648.189 542.611 644.536 542.611 641.526 540.948L400.843 407.951C393.959 404.147 393.959 394.25 400.843 390.446L641.526 257.448Z"
			fill="white"
		/>
		<path
			d="M641.526 257.448C644.536 255.785 648.189 255.785 651.199 257.448L891.881 390.446C898.766 394.25 898.766 404.147 891.881 407.951L651.199 540.948C648.189 542.611 644.536 542.611 641.526 540.948L400.843 407.951C393.959 404.147 393.959 394.25 400.843 390.446L641.526 257.448Z"
			fill="#5200DF"
		/>
	</g>
	<path
		d="M643.49 289.43C646.199 287.933 649.486 287.933 652.195 289.43L836.606 391.321C842.803 394.745 842.803 403.652 836.606 407.076L652.195 508.967C649.486 510.464 646.199 510.464 643.49 508.967L459.079 407.076C452.882 403.652 452.882 394.745 459.079 391.321L643.49 289.43Z"
		stroke="white"
		stroke-width="2"
	/>
	<g filter="url(#filter7_i_1579_9209)">
		<path
			d="M642.274 306.321C645.28 304.663 648.926 304.663 651.932 306.321L804.476 390.442C811.37 394.244 811.37 404.153 804.476 407.956L651.932 492.077C648.926 493.734 645.28 493.734 642.274 492.077L489.731 407.956C482.836 404.153 482.836 394.244 489.731 390.442L642.274 306.321Z"
			fill="#B8B8B8"
		/>
	</g>
	<path
		d="M1149.4 968.101C1149.4 1038.3 1057.08 1095.21 943.188 1095.21C829.301 1095.21 736.977 1038.3 736.977 968.101C736.977 897.9 829.301 840.991 943.188 840.991C1057.08 840.991 1149.4 897.9 1149.4 968.101Z"
		fill="#5A27FF"
	/>
	<rect x="737.082" y="890.301" width="412.424" height="77.5281" fill="#5A27FF" />
	<ellipse cx="943.294" cy="890.301" rx="206.212" ry="127.11" fill="#5A27FF" />
	<path
		fill-rule="evenodd"
		clip-rule="evenodd"
		d="M1146.48 912.118C1126.88 969.739 1043.97 1013.01 944.66 1013.01C830.773 1013.01 738.449 956.099 738.449 885.898C738.449 878.459 739.485 871.169 741.475 864.08C738.596 872.542 737.082 881.313 737.082 890.302C737.082 960.502 829.406 1017.41 943.294 1017.41C1045.11 1017.41 1129.7 971.924 1146.48 912.118Z"
		fill="white"
	/>
	<g filter="url(#filter8_f_1579_9209)">
		<path
			fill-rule="evenodd"
			clip-rule="evenodd"
			d="M1112.96 963.455H1149.5V897.505C1143.71 920.632 1131.21 942.769 1112.96 963.455Z"
			fill="#3F04F1"
		/>
		<path
			fill-rule="evenodd"
			clip-rule="evenodd"
			d="M1139.79 923.948C1104.99 995.411 1005.05 1054.86 871.656 1087.09C893.941 1092.34 918.038 1095.21 943.188 1095.21C1057.08 1095.21 1149.4 1036.35 1149.4 963.735C1149.4 949.867 1146.03 936.5 1139.79 923.948Z"
			fill="#3F04F1"
		/>
	</g>
	<g filter="url(#filter9_f_1579_9209)">
		<ellipse cx="944.383" cy="885.403" rx="194.082" ry="119.517" fill="#1C00A9" />
	</g>
	<path
		d="M1137.64 870.722C1137.64 936.729 1050.75 990.239 943.562 990.239C836.374 990.239 749.48 936.729 749.48 870.722C749.48 804.714 836.374 751.205 943.562 751.205C1050.75 751.205 1137.64 804.714 1137.64 870.722Z"
		fill="#2600CD"
	/>
	<rect x="749.578" y="797.57" width="388.164" height="72.897" fill="#2600CD" />
	<ellipse cx="943.66" cy="797.57" rx="194.082" ry="119.517" fill="#2C00DC" />
	<path
		fill-rule="evenodd"
		clip-rule="evenodd"
		d="M1103.35 866.354H1137.74V804.345C1132.29 826.09 1120.52 846.904 1103.35 866.354Z"
		fill="#2C00DC"
	/>
	<path
		fill-rule="evenodd"
		clip-rule="evenodd"
		d="M1128.6 829.207C1095.85 896.401 1001.79 952.295 876.238 982.599C897.212 987.54 919.892 990.239 943.562 990.239C1050.75 990.239 1137.64 934.892 1137.64 866.617C1137.64 853.577 1134.47 841.008 1128.6 829.207Z"
		fill="#2C00DC"
	/>
	<path
		d="M1149.4 822.777C1149.4 892.978 1057.08 949.887 943.188 949.887C829.301 949.887 736.977 892.978 736.977 822.777C736.977 752.577 829.301 695.667 943.188 695.667C1057.08 695.667 1149.4 752.577 1149.4 822.777Z"
		fill="#5A27FF"
	/>
	<rect x="737.082" y="744.978" width="412.424" height="77.5281" fill="#5A27FF" />
	<ellipse cx="943.294" cy="744.978" rx="206.212" ry="127.11" fill="#5A27FF" />
	<path
		fill-rule="evenodd"
		clip-rule="evenodd"
		d="M1146.48 766.795C1126.88 824.416 1043.97 867.685 944.66 867.685C830.773 867.685 738.449 810.775 738.449 740.575C738.449 733.135 739.485 725.846 741.475 718.757C738.596 727.218 737.082 735.989 737.082 744.978C737.082 815.179 829.406 872.088 943.294 872.088C1045.11 872.088 1129.7 826.601 1146.48 766.795Z"
		fill="white"
	/>
	<g filter="url(#filter10_f_1579_9209)">
		<path
			fill-rule="evenodd"
			clip-rule="evenodd"
			d="M1112.96 818.131H1149.5V752.182C1143.71 775.309 1131.21 797.446 1112.96 818.131Z"
			fill="#3F04F1"
		/>
		<path
			fill-rule="evenodd"
			clip-rule="evenodd"
			d="M1139.79 778.625C1104.99 850.088 1005.05 909.533 871.656 941.762C893.941 947.017 918.038 949.888 943.188 949.888C1057.08 949.888 1149.4 891.024 1149.4 818.412C1149.4 804.543 1146.03 791.176 1139.79 778.625Z"
			fill="#3F04F1"
		/>
	</g>
	<g filter="url(#filter11_f_1579_9209)">
		<ellipse cx="944.383" cy="737.878" rx="194.082" ry="119.517" fill="#1C00A9" />
	</g>
	<path
		d="M1137.64 723.196C1137.64 789.204 1050.75 842.713 943.562 842.713C836.374 842.713 749.48 789.204 749.48 723.196C749.48 657.189 836.374 603.679 943.562 603.679C1050.75 603.679 1137.64 657.189 1137.64 723.196Z"
		fill="#2600CD"
	/>
	<rect x="749.578" y="650.044" width="388.164" height="72.897" fill="#2600CD" />
	<ellipse cx="943.66" cy="650.044" rx="194.082" ry="119.517" fill="#2C00DC" />
	<path
		fill-rule="evenodd"
		clip-rule="evenodd"
		d="M1103.35 718.828H1137.74V656.819C1132.29 678.564 1120.52 699.378 1103.35 718.828Z"
		fill="#2C00DC"
	/>
	<path
		fill-rule="evenodd"
		clip-rule="evenodd"
		d="M1128.6 681.681C1095.85 748.875 1001.79 804.769 876.238 835.073C897.212 840.015 919.892 842.714 943.562 842.714C1050.75 842.714 1137.64 787.366 1137.64 719.092C1137.64 706.051 1134.47 693.483 1128.6 681.681Z"
		fill="#2C00DC"
	/>
	<path
		d="M1149.4 675.252C1149.4 745.453 1057.08 802.362 943.188 802.362C829.301 802.362 736.977 745.453 736.977 675.252C736.977 605.051 829.301 548.142 943.188 548.142C1057.08 548.142 1149.4 605.051 1149.4 675.252Z"
		fill="#5A27FF"
	/>
	<rect x="737.082" y="597.453" width="412.424" height="77.5281" fill="#5A27FF" />
	<ellipse cx="943.294" cy="597.453" rx="206.212" ry="127.11" fill="#5A27FF" />
	<path
		fill-rule="evenodd"
		clip-rule="evenodd"
		d="M1146.48 619.27C1126.88 676.891 1043.97 720.159 944.66 720.159C830.773 720.159 738.449 663.25 738.449 593.049C738.449 585.61 739.485 578.32 741.475 571.231C738.596 579.693 737.082 588.464 737.082 597.453C737.082 667.654 829.406 724.563 943.294 724.563C1045.11 724.563 1129.7 679.076 1146.48 619.27Z"
		fill="white"
	/>
	<g filter="url(#filter12_f_1579_9209)">
		<path
			fill-rule="evenodd"
			clip-rule="evenodd"
			d="M1112.96 670.606H1149.5V604.657C1143.71 627.784 1131.21 649.921 1112.96 670.606Z"
			fill="#3F04F1"
		/>
		<path
			fill-rule="evenodd"
			clip-rule="evenodd"
			d="M1139.79 631.1C1104.99 702.563 1005.05 762.007 871.656 794.237C893.941 799.492 918.038 802.362 943.188 802.362C1057.08 802.362 1149.4 743.499 1149.4 670.887C1149.4 657.018 1146.03 643.651 1139.79 631.1Z"
			fill="#3F04F1"
		/>
	</g>
	<path
		d="M1073.76 587.601C1073.76 631.881 1015.49 667.777 943.609 667.777C871.726 667.777 813.453 631.881 813.453 587.601C813.453 543.32 871.726 507.424 943.609 507.424C1015.49 507.424 1073.76 543.32 1073.76 587.601Z"
		fill="#1C00A9"
	/>
	<rect x="813.453" y="555.815" width="260.141" height="31.3305" fill="#1C00A9" />
	<ellipse cx="943.524" cy="555.815" rx="130.071" ry="80.3345" fill="#301AF7" />
	<path
		fill-rule="evenodd"
		clip-rule="evenodd"
		d="M1071.92 569.419C1059.55 605.763 1007.22 633.055 944.538 633.055C872.655 633.055 814.382 597.159 814.382 552.879C814.382 548.187 815.036 543.588 816.292 539.117C814.475 544.454 813.52 549.987 813.52 555.657C813.52 599.937 871.792 635.833 943.675 635.833C1007.94 635.833 1061.33 607.142 1071.92 569.419Z"
		fill="white"
	/>
	<g filter="url(#filter13_f_1579_9209)">
		<path
			fill-rule="evenodd"
			clip-rule="evenodd"
			d="M1070.23 567.959L1109.8 223L775.951 223L815.514 567.959H1070.23Z"
			fill="url(#paint0_linear_1579_9209)"
			fill-opacity="0.1"
		/>
	</g>
	<g filter="url(#filter14_i_1579_9209)">
		<path
			d="M882.167 504.525L902.09 518.379C898.459 519.706 895.051 521.431 891.997 523.554C888.944 525.677 886.464 528.047 884.555 530.572L864.632 516.719C859.789 513.352 859.79 507.892 864.632 504.525C869.474 501.158 877.325 501.158 882.167 504.525Z"
			fill="white"
		/>
		<path
			d="M974.891 540.182C979.734 543.549 979.733 549.008 974.891 552.375C970.049 555.742 962.198 555.742 957.356 552.375L936.5 537.872C929.823 533.23 918.999 533.23 912.322 537.872C905.646 542.515 905.646 550.042 912.322 554.684L939.302 573.445C924.469 577.299 907.114 575.08 895.185 566.785C878.898 555.46 878.898 537.097 895.185 525.771C911.295 514.569 937.306 514.447 953.632 525.405L953.636 525.402L974.891 540.182Z"
			fill="white"
		/>
		<path
			d="M933.444 540.182L953.636 554.222C960.313 558.865 971.137 558.865 977.814 554.222C984.49 549.58 984.49 542.053 977.814 537.41L950.833 518.649C965.667 514.795 983.022 517.015 994.951 525.309C1011.24 536.635 1011.24 554.998 994.951 566.323C978.663 577.649 952.256 577.649 935.968 566.323L915.909 552.375C911.067 549.008 911.067 543.549 915.909 540.182C920.751 536.815 928.602 536.814 933.444 540.182Z"
			fill="white"
		/>
		<path
			d="M1007.83 587.475C1012.68 590.842 1020.53 590.842 1025.37 587.475C1030.21 584.108 1030.21 578.648 1025.37 575.281L1005.45 561.428C1003.54 563.953 1001.06 566.323 998.003 568.446C994.949 570.569 991.541 572.294 987.91 573.621L1007.83 587.475Z"
			fill="white"
		/>
	</g>
	<defs>
		<filter
			id="filter0_i_1579_9209"
			x="751.066"
			y="130.294"
			width="388.824"
			height="223.783"
			filterUnits="userSpaceOnUse"
			color-interpolation-filters="sRGB"
		>
			<feFlood flood-opacity="0" result="BackgroundImageFix" />
			<feBlend mode="normal" in="SourceGraphic" in2="BackgroundImageFix" result="shape" />
			<feColorMatrix
				in="SourceAlpha"
				type="matrix"
				values="0 0 0 0 0 0 0 0 0 0 0 0 0 0 0 0 0 0 127 0"
				result="hardAlpha"
			/>
			<feOffset dy="10" />
			<feComposite in2="hardAlpha" operator="arithmetic" k2="-1" k3="1" />
			<feColorMatrix type="matrix" values="0 0 0 0 0 0 0 0 0 0 0 0 0 0 0 0 0 0 1 0" />
			<feBlend mode="normal" in2="shape" result="effect1_innerShadow_1579_9209" />
		</filter>
		<filter
			id="filter1_i_1579_9209"
			x="801.414"
			y="156.957"
			width="289.613"
			height="168.976"
			filterUnits="userSpaceOnUse"
			color-interpolation-filters="sRGB"
		>
			<feFlood flood-opacity="0" result="BackgroundImageFix" />
			<feBlend mode="normal" in="SourceGraphic" in2="BackgroundImageFix" result="shape" />
			<feColorMatrix
				in="SourceAlpha"
				type="matrix"
				values="0 0 0 0 0 0 0 0 0 0 0 0 0 0 0 0 0 0 127 0"
				result="hardAlpha"
			/>
			<feOffset dy="10" />
			<feComposite in2="hardAlpha" operator="arithmetic" k2="-1" k3="1" />
			<feColorMatrix type="matrix" values="0 0 0 0 0 0 0 0 0 0 0 0 0 0 0 0 0 0 1 0" />
			<feBlend mode="normal" in2="shape" result="effect1_innerShadow_1579_9209" />
		</filter>
		<filter
			id="filter2_i_1579_9209"
			x="841.445"
			y="179.167"
			width="212.512"
			height="126.036"
			filterUnits="userSpaceOnUse"
			color-interpolation-filters="sRGB"
		>
			<feFlood flood-opacity="0" result="BackgroundImageFix" />
			<feBlend mode="normal" in="SourceGraphic" in2="BackgroundImageFix" result="shape" />
			<feColorMatrix
				in="SourceAlpha"
				type="matrix"
				values="0 0 0 0 0 0 0 0 0 0 0 0 0 0 0 0 0 0 127 0"
				result="hardAlpha"
			/>
			<feOffset dy="10" />
			<feComposite in2="hardAlpha" operator="arithmetic" k2="-1" k3="1" />
			<feColorMatrix type="matrix" values="0 0 0 0 0 0 0 0 0 0 0 0 0 0 0 0 0 0 1 0" />
			<feBlend mode="normal" in2="shape" result="effect1_innerShadow_1579_9209" />
		</filter>
		<filter
			id="filter3_i_1579_9209"
			x="874.055"
			y="201.381"
			width="142.852"
			height="87.5337"
			filterUnits="userSpaceOnUse"
			color-interpolation-filters="sRGB"
		>
			<feFlood flood-opacity="0" result="BackgroundImageFix" />
			<feBlend mode="normal" in="SourceGraphic" in2="BackgroundImageFix" result="shape" />
			<feColorMatrix
				in="SourceAlpha"
				type="matrix"
				values="0 0 0 0 0 0 0 0 0 0 0 0 0 0 0 0 0 0 127 0"
				result="hardAlpha"
			/>
			<feOffset dy="10" />
			<feComposite in2="hardAlpha" operator="arithmetic" k2="-1" k3="1" />
			<feColorMatrix type="matrix" values="0 0 0 0 0 0 0 0 0 0 0 0 0 0 0 0 0 0 1 0" />
			<feBlend mode="normal" in2="shape" result="effect1_innerShadow_1579_9209" />
		</filter>
		<filter
			id="filter4_i_1579_9209"
			x="1050.19"
			y="386.551"
			width="388.824"
			height="223.783"
			filterUnits="userSpaceOnUse"
			color-interpolation-filters="sRGB"
		>
			<feFlood flood-opacity="0" result="BackgroundImageFix" />
			<feBlend mode="normal" in="SourceGraphic" in2="BackgroundImageFix" result="shape" />
			<feColorMatrix
				in="SourceAlpha"
				type="matrix"
				values="0 0 0 0 0 0 0 0 0 0 0 0 0 0 0 0 0 0 127 0"
				result="hardAlpha"
			/>
			<feOffset dy="60" />
			<feComposite in2="hardAlpha" operator="arithmetic" k2="-1" k3="1" />
			<feColorMatrix type="matrix" values="0 0 0 0 0 0 0 0 0 0 0 0 0 0 0 0 0 0 1 0" />
			<feBlend mode="normal" in2="shape" result="effect1_innerShadow_1579_9209" />
		</filter>
		<filter
			id="filter5_i_1579_9209"
			x="484.559"
			y="305.078"
			width="325.09"
			height="188.242"
			filterUnits="userSpaceOnUse"
			color-interpolation-filters="sRGB"
		>
			<feFlood flood-opacity="0" result="BackgroundImageFix" />
			<feBlend mode="normal" in="SourceGraphic" in2="BackgroundImageFix" result="shape" />
			<feColorMatrix
				in="SourceAlpha"
				type="matrix"
				values="0 0 0 0 0 0 0 0 0 0 0 0 0 0 0 0 0 0 127 0"
				result="hardAlpha"
			/>
			<feOffset dy="8" />
			<feComposite in2="hardAlpha" operator="arithmetic" k2="-1" k3="1" />
			<feColorMatrix type="matrix" values="0 0 0 0 0 0 0 0 0 0 0 0 0 0 0 0 0 0 1 0" />
			<feBlend mode="normal" in2="shape" result="effect1_innerShadow_1579_9209" />
		</filter>
		<filter
			id="filter6_d_1579_9209"
			x="391.68"
			y="256.201"
			width="509.363"
			height="293.995"
			filterUnits="userSpaceOnUse"
			color-interpolation-filters="sRGB"
		>
			<feFlood flood-opacity="0" result="BackgroundImageFix" />
			<feColorMatrix
				in="SourceAlpha"
				type="matrix"
				values="0 0 0 0 0 0 0 0 0 0 0 0 0 0 0 0 0 0 127 0"
				result="hardAlpha"
			/>
			<feOffset dy="4" />
			<feGaussianBlur stdDeviation="2" />
			<feComposite in2="hardAlpha" operator="out" />
			<feColorMatrix type="matrix" values="0 0 0 0 0 0 0 0 0 0 0 0 0 0 0 0 0 0 0.25 0" />
			<feBlend mode="normal" in2="BackgroundImageFix" result="effect1_dropShadow_1579_9209" />
			<feBlend mode="normal" in="SourceGraphic" in2="effect1_dropShadow_1579_9209" result="shape" />
		</filter>
		<filter
			id="filter7_i_1579_9209"
			x="484.559"
			y="305.078"
			width="325.09"
			height="188.242"
			filterUnits="userSpaceOnUse"
			color-interpolation-filters="sRGB"
		>
			<feFlood flood-opacity="0" result="BackgroundImageFix" />
			<feBlend mode="normal" in="SourceGraphic" in2="BackgroundImageFix" result="shape" />
			<feColorMatrix
				in="SourceAlpha"
				type="matrix"
				values="0 0 0 0 0 0 0 0 0 0 0 0 0 0 0 0 0 0 127 0"
				result="hardAlpha"
			/>
			<feOffset dy="8" />
			<feComposite in2="hardAlpha" operator="arithmetic" k2="-1" k3="1" />
			<feColorMatrix type="matrix" values="0 0 0 0 0 0 0 0 0 0 0 0 0 0 0 0 0 0 1 0" />
			<feBlend mode="normal" in2="shape" result="effect1_innerShadow_1579_9209" />
		</filter>
		<filter
			id="filter8_f_1579_9209"
			x="851.656"
			y="877.505"
			width="317.848"
			height="237.706"
			filterUnits="userSpaceOnUse"
			color-interpolation-filters="sRGB"
		>
			<feFlood flood-opacity="0" result="BackgroundImageFix" />
			<feBlend mode="normal" in="SourceGraphic" in2="BackgroundImageFix" result="shape" />
			<feGaussianBlur stdDeviation="10" result="effect1_foregroundBlur_1579_9209" />
		</filter>
		<filter
			id="filter9_f_1579_9209"
			x="746.301"
			y="761.886"
			width="396.164"
			height="247.034"
			filterUnits="userSpaceOnUse"
			color-interpolation-filters="sRGB"
		>
			<feFlood flood-opacity="0" result="BackgroundImageFix" />
			<feBlend mode="normal" in="SourceGraphic" in2="BackgroundImageFix" result="shape" />
			<feGaussianBlur stdDeviation="2" result="effect1_foregroundBlur_1579_9209" />
		</filter>
		<filter
			id="filter10_f_1579_9209"
			x="851.656"
			y="732.182"
			width="317.848"
			height="237.706"
			filterUnits="userSpaceOnUse"
			color-interpolation-filters="sRGB"
		>
			<feFlood flood-opacity="0" result="BackgroundImageFix" />
			<feBlend mode="normal" in="SourceGraphic" in2="BackgroundImageFix" result="shape" />
			<feGaussianBlur stdDeviation="10" result="effect1_foregroundBlur_1579_9209" />
		</filter>
		<filter
			id="filter11_f_1579_9209"
			x="746.301"
			y="614.361"
			width="396.164"
			height="247.034"
			filterUnits="userSpaceOnUse"
			color-interpolation-filters="sRGB"
		>
			<feFlood flood-opacity="0" result="BackgroundImageFix" />
			<feBlend mode="normal" in="SourceGraphic" in2="BackgroundImageFix" result="shape" />
			<feGaussianBlur stdDeviation="2" result="effect1_foregroundBlur_1579_9209" />
		</filter>
		<filter
			id="filter12_f_1579_9209"
			x="851.656"
			y="584.657"
			width="317.848"
			height="237.706"
			filterUnits="userSpaceOnUse"
			color-interpolation-filters="sRGB"
		>
			<feFlood flood-opacity="0" result="BackgroundImageFix" />
			<feBlend mode="normal" in="SourceGraphic" in2="BackgroundImageFix" result="shape" />
			<feGaussianBlur stdDeviation="10" result="effect1_foregroundBlur_1579_9209" />
		</filter>
		<filter
			id="filter13_f_1579_9209"
			x="765.949"
			y="213"
			width="353.848"
			height="364.959"
			filterUnits="userSpaceOnUse"
			color-interpolation-filters="sRGB"
		>
			<feFlood flood-opacity="0" result="BackgroundImageFix" />
			<feBlend mode="normal" in="SourceGraphic" in2="BackgroundImageFix" result="shape" />
			<feGaussianBlur stdDeviation="5" result="effect1_foregroundBlur_1579_9209" />
		</filter>
		<filter
			id="filter14_i_1579_9209"
			x="861"
			y="502"
			width="168"
			height="88"
			filterUnits="userSpaceOnUse"
			color-interpolation-filters="sRGB"
		>
			<feFlood flood-opacity="0" result="BackgroundImageFix" />
			<feBlend mode="normal" in="SourceGraphic" in2="BackgroundImageFix" result="shape" />
			<feColorMatrix
				in="SourceAlpha"
				type="matrix"
				values="0 0 0 0 0 0 0 0 0 0 0 0 0 0 0 0 0 0 127 0"
				result="hardAlpha"
			/>
			<feOffset dy="8" />
			<feComposite in2="hardAlpha" operator="arithmetic" k2="-1" k3="1" />
			<feColorMatrix type="matrix" values="0 0 0 0 0 0 0 0 0 0 0 0 0 0 0 0 0 0 0.25 0" />
			<feBlend mode="normal" in2="shape" result="effect1_innerShadow_1579_9209" />
		</filter>
		<linearGradient
			id="paint0_linear_1579_9209"
			x1="942.874"
			y1="223"
			x2="942.874"
			y2="567.959"
			gradientUnits="userSpaceOnUse"
		>
			<stop stop-color="#3927FF" stop-opacity="0.1" />
			<stop offset="0.755" stop-color="#3927FF" />
		</linearGradient>
	</defs>
</svg>
