<svg  viewBox="0 0 2029 2168" fill="none" xmlns="http://www.w3.org/2000/svg">
<path d="M1009.88 1091.93C1012.65 1090.4 1016 1090.35 1018.81 1091.79L1019.08 1091.93L1813.6 1531.54C1820.03 1535.1 1820.13 1544.26 1813.9 1548L1813.6 1548.17L1019.08 1987.78C1016.31 1989.32 1012.96 1989.36 1010.15 1987.93L1009.88 1987.78L215.364 1548.17C208.932 1544.61 208.832 1535.45 215.062 1531.72L215.364 1531.54L1009.88 1091.93Z" fill="#F44C2A" fill-opacity="0.2" stroke="white"/>
<g filter="url(#filter0_f_1576_6243)">
<rect x="600.602" y="600" width="827.758" height="967.26" rx="400" fill="#FF3122" fill-opacity="0.3"/>
</g>
<rect x="353.311" y="1417.65" width="1320.86" height="133.313" rx="10" fill="#E13100"/>
<path d="M1009.14 1048.97C1011.91 1047.44 1015.26 1047.39 1018.07 1048.83L1018.34 1048.97L1890.6 1531.54C1897.03 1535.1 1897.13 1544.26 1890.9 1548L1890.6 1548.17L1018.34 2030.74C1015.57 2032.27 1012.22 2032.32 1009.41 2030.88L1009.14 2030.74L136.887 1548.17C130.454 1544.61 130.353 1535.45 136.585 1531.72L136.887 1531.54L1009.14 1048.97Z" stroke="white" stroke-opacity="0.5"/>
<path d="M1008.4 1020.83C1011.17 1019.3 1014.52 1019.25 1017.33 1020.69L1017.6 1020.83L1940.94 1531.54C1947.37 1535.1 1947.47 1544.26 1941.24 1548L1940.94 1548.17L1017.6 2058.89C1014.83 2060.42 1011.48 2060.47 1008.67 2059.03L1008.4 2058.89L85.0625 1548.17C78.6288 1544.61 78.528 1535.45 84.7607 1531.72L85.0625 1531.54L1008.4 1020.83Z" stroke="white" stroke-opacity="0.2"/>
<path d="M1009.64 1168.52C1012.65 1166.85 1016.31 1166.85 1019.32 1168.52L1673.17 1530.37C1680.05 1534.17 1680.05 1544.06 1673.17 1547.87L1019.32 1909.71C1016.31 1911.38 1012.65 1911.38 1009.64 1909.71L355.794 1547.87C348.917 1544.06 348.917 1534.17 355.794 1530.37L1009.64 1168.52Z" fill="#E13100"/>
<path d="M1008.16 1055.94C1011.17 1054.28 1014.83 1054.28 1017.84 1055.94L1673.16 1418.53C1680.04 1422.34 1680.04 1432.23 1673.16 1436.03L1017.84 1798.62C1014.83 1800.29 1011.17 1800.29 1008.16 1798.62L352.836 1436.03C345.957 1432.23 345.957 1422.34 352.836 1418.53L1008.16 1055.94Z" fill="white"/>
<path d="M1008.16 1055.94C1011.17 1054.28 1014.83 1054.28 1017.84 1055.94L1673.16 1418.53C1680.04 1422.34 1680.04 1432.23 1673.16 1436.03L1017.84 1798.62C1014.83 1800.29 1011.17 1800.29 1008.16 1798.62L352.836 1436.03C345.957 1432.23 345.957 1422.34 352.836 1418.53L1008.16 1055.94Z" fill="#CE3100"/>
<path d="M1012.6 1124.07C1015.61 1122.41 1019.27 1122.41 1022.28 1124.07L1262.96 1257.07C1269.84 1260.88 1269.84 1270.77 1262.96 1274.58L1022.28 1407.57C1019.27 1409.24 1015.61 1409.24 1012.6 1407.57L771.921 1274.58C765.037 1270.77 765.037 1260.88 771.921 1257.07L1012.6 1124.07Z" fill="#D83100"/>
<rect x="770.891" y="1179.17" width="491.62" height="97.7629" rx="10" fill="#D83100"/>
<path d="M1011.12 1048.53C1014.13 1046.87 1017.79 1046.87 1020.8 1048.53L1261.48 1181.53C1268.36 1185.33 1268.36 1195.23 1261.48 1199.03L1020.8 1332.03C1017.79 1333.69 1014.13 1333.69 1011.12 1332.03L770.441 1199.03C763.556 1195.23 763.556 1185.33 770.441 1181.53L1011.12 1048.53Z" fill="white"/>
<path d="M1011.12 1048.53C1014.13 1046.87 1017.79 1046.87 1020.8 1048.53L1261.48 1181.53C1268.36 1185.33 1268.36 1195.23 1261.48 1199.03L1020.8 1332.03C1017.79 1333.69 1014.13 1333.69 1011.12 1332.03L770.441 1199.03C763.556 1195.23 763.556 1185.33 770.441 1181.53L1011.12 1048.53Z" fill="#A93100"/>
<path d="M1265.83 1191.85C1265.38 1194.72 1263.7 1197.41 1260.79 1199.02L1020.29 1332.01C1017.28 1333.68 1013.62 1333.68 1010.61 1332.01L770.116 1199.02C767.206 1197.41 765.527 1194.72 765.078 1191.85L1010.7 1324.61C1013.66 1326.22 1017.24 1326.22 1020.21 1324.61L1265.83 1191.85Z" fill="white"/>
<path d="M1265.83 1191.85C1265.38 1194.72 1263.7 1197.41 1260.79 1199.02L1020.29 1332.01C1017.28 1333.68 1013.62 1333.68 1010.61 1332.01L770.116 1199.02C767.206 1197.41 765.527 1194.72 765.078 1191.85L1010.7 1324.61C1013.66 1326.22 1017.24 1326.22 1020.21 1324.61L1265.83 1191.85Z" fill="white"/>
<path d="M1012.6 1017.42C1015.61 1015.76 1019.27 1015.76 1022.28 1017.42L1262.96 1150.42C1269.84 1154.23 1269.84 1164.12 1262.96 1167.93L1022.28 1300.92C1019.27 1302.59 1015.61 1302.59 1012.6 1300.92L771.921 1167.93C765.037 1164.12 765.037 1154.23 771.921 1150.42L1012.6 1017.42Z" fill="#D83100"/>
<rect x="770.891" y="1072.52" width="491.62" height="97.7629" rx="10" fill="#D83100"/>
<path d="M1011.12 941.88C1014.13 940.217 1017.79 940.217 1020.8 941.88L1261.48 1074.88C1268.36 1078.68 1268.36 1088.58 1261.48 1092.38L1020.8 1225.38C1017.79 1227.04 1014.13 1227.04 1011.12 1225.38L770.441 1092.38C763.556 1088.58 763.556 1078.68 770.441 1074.88L1011.12 941.88Z" fill="white"/>
<path d="M1011.12 941.88C1014.13 940.217 1017.79 940.217 1020.8 941.88L1261.48 1074.88C1268.36 1078.68 1268.36 1088.58 1261.48 1092.38L1020.8 1225.38C1017.79 1227.04 1014.13 1227.04 1011.12 1225.38L770.441 1092.38C763.556 1088.58 763.556 1078.68 770.441 1074.88L1011.12 941.88Z" fill="#A93100"/>
<path d="M1265.83 1085.2C1265.38 1088.07 1263.7 1090.76 1260.79 1092.37L1020.29 1225.36C1017.28 1227.02 1013.62 1227.02 1010.61 1225.36L770.116 1092.37C767.206 1090.76 765.527 1088.07 765.078 1085.2L1010.7 1217.96C1013.66 1219.57 1017.24 1219.57 1020.21 1217.96L1265.83 1085.2Z" fill="white"/>
<path d="M1265.83 1085.2C1265.38 1088.07 1263.7 1090.76 1260.79 1092.37L1020.29 1225.36C1017.28 1227.02 1013.62 1227.02 1010.61 1225.36L770.116 1092.37C767.206 1090.76 765.527 1088.07 765.078 1085.2L1010.7 1217.96C1013.66 1219.57 1017.24 1219.57 1020.21 1217.96L1265.83 1085.2Z" fill="white"/>
<path d="M1011.12 910.774C1014.13 909.11 1017.79 909.11 1020.8 910.774L1261.48 1043.77C1268.36 1047.58 1268.36 1057.47 1261.48 1061.28L1020.8 1194.27C1017.79 1195.94 1014.13 1195.94 1011.12 1194.27L770.441 1061.28C763.556 1057.47 763.556 1047.58 770.441 1043.77L1011.12 910.774Z" fill="#D83100"/>
<rect x="769.41" y="965.87" width="491.62" height="97.7629" rx="10" fill="#D83100"/>
<path d="M1009.64 835.23C1012.65 833.567 1016.31 833.567 1019.32 835.23L1260 968.227C1266.88 972.031 1266.88 981.928 1260 985.732L1019.32 1118.73C1016.31 1120.39 1012.65 1120.39 1009.64 1118.73L768.961 985.732C762.076 981.928 762.076 972.031 768.96 968.227L1009.64 835.23Z" fill="white"/>
<path d="M1009.64 835.23C1012.65 833.567 1016.31 833.567 1019.32 835.23L1260 968.227C1266.88 972.031 1266.88 981.928 1260 985.732L1019.32 1118.73C1016.31 1120.39 1012.65 1120.39 1009.64 1118.73L768.961 985.732C762.076 981.928 762.076 972.031 768.96 968.227L1009.64 835.23Z" fill="#A93100"/>
<path d="M1264.35 978.549C1263.9 981.415 1262.22 984.113 1259.31 985.722L1018.81 1118.71C1015.8 1120.37 1012.14 1120.37 1009.13 1118.71L768.636 985.722C765.726 984.113 764.046 981.415 763.598 978.549L1009.22 1111.31C1012.18 1112.92 1015.76 1112.92 1018.73 1111.31L1264.35 978.549Z" fill="white"/>
<path d="M1264.35 978.549C1263.9 981.415 1262.22 984.113 1259.31 985.722L1018.81 1118.71C1015.8 1120.37 1012.14 1120.37 1009.13 1118.71L768.636 985.722C765.726 984.113 764.046 981.415 763.598 978.549L1009.22 1111.31C1012.18 1112.92 1015.76 1112.92 1018.73 1111.31L1264.35 978.549Z" fill="white"/>
<path d="M1011.12 802.642C1014.13 800.979 1017.79 800.979 1020.8 802.642L1261.48 935.639C1268.36 939.443 1268.36 949.34 1261.48 953.144L1020.8 1086.14C1017.79 1087.8 1014.13 1087.8 1011.12 1086.14L770.441 953.144C763.556 949.34 763.556 939.443 770.441 935.639L1011.12 802.642Z" fill="#5D3100"/>
<rect x="769.41" y="857.738" width="491.62" height="97.7629" rx="10" fill="#5D3100"/>
<path d="M1009.64 727.098C1012.65 725.435 1016.31 725.435 1019.32 727.098L1260 860.095C1266.88 863.899 1266.88 873.796 1260 877.6L1019.32 1010.6C1016.31 1012.26 1012.65 1012.26 1009.64 1010.6L768.961 877.6C762.076 873.796 762.076 863.9 768.96 860.095L1009.64 727.098Z" fill="white"/>
<path d="M1009.64 727.098C1012.65 725.435 1016.31 725.435 1019.32 727.098L1260 860.095C1266.88 863.899 1266.88 873.796 1260 877.6L1019.32 1010.6C1016.31 1012.26 1012.65 1012.26 1009.64 1010.6L768.961 877.6C762.076 873.796 762.076 863.9 768.96 860.095L1009.64 727.098Z" fill="#D74F25"/>
<path d="M1264.35 870.417C1263.9 873.283 1262.22 875.981 1259.31 877.59L1018.81 1010.58C1015.8 1012.24 1012.14 1012.24 1009.13 1010.58L768.636 877.59C765.726 875.981 764.046 873.283 763.598 870.417L1009.22 1003.18C1012.18 1004.78 1015.76 1004.78 1018.73 1003.18L1264.35 870.417Z" fill="white"/>
<path d="M1264.35 870.417C1263.9 873.283 1262.22 875.981 1259.31 877.59L1018.81 1010.58C1015.8 1012.24 1012.14 1012.24 1009.13 1010.58L768.636 877.59C765.726 875.981 764.046 873.283 763.598 870.417L1009.22 1003.18C1012.18 1004.78 1015.76 1004.78 1018.73 1003.18L1264.35 870.417Z" fill="white"/>
<path d="M1009.64 712.285C1012.65 710.622 1016.31 710.622 1019.32 712.285L1260 845.283C1266.88 849.087 1266.88 858.984 1260 862.788L1019.32 995.785C1016.31 997.448 1012.65 997.448 1009.64 995.785L768.96 862.788C762.076 858.984 762.076 849.087 768.96 845.283L1009.64 712.285Z" fill="#DF3100"/>
<path d="M1008.16 700.435C1011.17 698.772 1014.83 698.772 1017.84 700.435L1258.52 833.433C1265.4 837.237 1265.4 847.133 1258.52 850.938L1017.84 983.935C1014.83 985.598 1011.17 985.598 1008.16 983.935L767.48 850.938C760.595 847.133 760.595 837.237 767.48 833.433L1008.16 700.435Z" fill="white"/>
<path d="M1008.16 700.435C1011.17 698.772 1014.83 698.772 1017.84 700.435L1258.52 833.433C1265.4 837.237 1265.4 847.133 1258.52 850.938L1017.84 983.935C1014.83 985.598 1011.17 985.598 1008.16 983.935L767.48 850.938C760.595 847.133 760.595 837.237 767.48 833.433L1008.16 700.435Z" fill="#DF3100"/>
<g filter="url(#filter1_i_1576_6243)">
<path d="M1009.64 731.541C1012.65 729.878 1016.31 729.878 1019.32 731.541L1203.73 833.432C1210.61 837.237 1210.61 847.134 1203.73 850.938L1019.32 952.829C1016.31 954.492 1012.65 954.492 1009.64 952.829L825.232 850.938C818.347 847.134 818.347 837.237 825.232 833.432L1009.64 731.541Z" fill="#5D3100"/>
</g>
<path d="M1010.37 732.854C1012.85 731.485 1015.84 731.442 1018.35 732.726L1018.59 732.854L1203 834.745C1208.85 837.979 1208.85 846.391 1203 849.625L1018.59 951.517C1016.03 952.93 1012.93 952.93 1010.37 951.517L825.958 849.625C820.106 846.391 820.106 837.979 825.958 834.745L1010.37 732.854Z" stroke="#D83100" stroke-width="3"/>
<g filter="url(#filter2_i_1576_6243)">
<path d="M1010.38 758.204C1013.39 756.541 1017.05 756.541 1020.06 758.204L1154.86 832.692C1161.75 836.496 1161.75 846.393 1154.86 850.197L1020.06 924.685C1017.05 926.348 1013.39 926.348 1010.38 924.685L875.579 850.197C868.694 846.393 868.694 836.496 875.579 832.692L1010.38 758.204Z" fill="#5D3100"/>
</g>
<path d="M1011.11 759.517C1013.59 758.148 1016.58 758.105 1019.09 759.388L1019.33 759.517L1154.14 834.004C1159.99 837.238 1159.99 845.651 1154.14 848.884L1019.33 923.373C1016.77 924.786 1013.67 924.786 1011.11 923.373L876.304 848.884C870.543 845.701 870.453 837.499 876.034 834.16L876.304 834.004L1011.11 759.517Z" stroke="#D83100" stroke-width="3"/>
<g filter="url(#filter3_i_1576_6243)">
<path d="M1011.88 780.408C1014.88 778.753 1018.52 778.753 1021.53 780.408L1117.78 833.426C1124.68 837.227 1124.68 847.143 1117.78 850.944L1021.53 903.962C1018.52 905.617 1014.88 905.617 1011.88 903.962L915.621 850.944C908.721 847.143 908.721 837.227 915.621 833.426L1011.88 780.408Z" fill="#5D3100"/>
</g>
<path d="M1012.6 781.722C1015.15 780.316 1018.25 780.316 1020.8 781.722L1117.06 834.74C1122.92 837.97 1122.92 846.4 1117.06 849.63L1020.8 902.649C1018.25 904.055 1015.15 904.055 1012.6 902.649L916.345 849.63C910.479 846.4 910.479 837.97 916.345 834.74L1012.6 781.722Z" stroke="#D83100" stroke-width="3"/>
<g filter="url(#filter4_i_1576_6243)">
<path d="M1009.66 802.617C1012.66 800.968 1016.3 800.968 1019.3 802.617L1080.72 836.384C1087.63 840.183 1087.63 850.112 1080.72 853.911L1019.3 887.678C1016.3 889.327 1012.66 889.327 1009.66 887.678L948.238 853.911C941.328 850.112 941.328 840.183 948.238 836.384L1009.66 802.617Z" fill="#5D3100"/>
</g>
<path d="M1010.39 803.932C1012.94 802.53 1016.03 802.53 1018.58 803.932L1080 837.699C1085.78 840.877 1085.87 849.105 1080.27 852.441L1080 852.596L1018.58 886.363C1016.03 887.765 1012.94 887.765 1010.39 886.363L948.961 852.596C943.087 849.367 943.087 840.928 948.961 837.699L1010.39 803.932Z" stroke="#D83100" stroke-width="3"/>
<path d="M1311.73 1281.09C1314.73 1279.42 1318.39 1279.42 1321.4 1281.09L1562.08 1414.09C1568.97 1417.89 1568.97 1427.79 1562.08 1431.59L1321.4 1564.59C1318.39 1566.25 1314.73 1566.25 1311.73 1564.59L1071.04 1431.59C1064.16 1427.79 1064.16 1417.89 1071.04 1414.09L1311.73 1281.09Z" fill="#E13100"/>
<rect x="1070.01" y="1336.18" width="491.62" height="97.7629" rx="10" fill="#E13100"/>
<path d="M1310.24 1205.54C1313.25 1203.88 1316.91 1203.88 1319.92 1205.54L1560.6 1338.54C1567.48 1342.35 1567.48 1352.24 1560.6 1356.05L1319.92 1489.04C1316.91 1490.71 1313.25 1490.71 1310.24 1489.04L1069.56 1356.05C1062.68 1352.24 1062.68 1342.35 1069.56 1338.54L1310.24 1205.54Z" fill="white"/>
<path d="M1310.24 1205.54C1313.25 1203.88 1316.91 1203.88 1319.92 1205.54L1560.6 1338.54C1567.48 1342.35 1567.48 1352.24 1560.6 1356.05L1319.92 1489.04C1316.91 1490.71 1313.25 1490.71 1310.24 1489.04L1069.56 1356.05C1062.68 1352.24 1062.68 1342.35 1069.56 1338.54L1310.24 1205.54Z" fill="#DC3100"/>
<path fill-rule="evenodd" clip-rule="evenodd" d="M1064.2 1348.86C1064.65 1351.73 1066.33 1354.43 1069.24 1356.04L1309.73 1489.02C1312.74 1490.69 1316.4 1490.69 1319.41 1489.02L1559.91 1356.04C1562.82 1354.43 1564.5 1351.73 1564.95 1348.86L1319.33 1481.63C1316.36 1483.23 1312.78 1483.23 1309.82 1481.63L1064.2 1348.86Z" fill="white"/>
<path fill-rule="evenodd" clip-rule="evenodd" d="M1064.2 1348.86C1064.65 1351.73 1066.33 1354.43 1069.24 1356.04L1309.73 1489.02C1312.74 1490.69 1316.4 1490.69 1319.41 1489.02L1559.91 1356.04C1562.82 1354.43 1564.5 1351.73 1564.95 1348.86L1319.33 1481.63C1316.36 1483.23 1312.78 1483.23 1309.82 1481.63L1064.2 1348.86Z" fill="white"/>
<path d="M1310.24 1174.44C1313.25 1172.77 1316.91 1172.77 1319.92 1174.44L1560.6 1307.44C1567.48 1311.24 1567.48 1321.14 1560.6 1324.94L1319.92 1457.94C1316.91 1459.6 1313.25 1459.6 1310.24 1457.94L1069.56 1324.94C1062.68 1321.14 1062.68 1311.24 1069.56 1307.44L1310.24 1174.44Z" fill="#E13100"/>
<path d="M1311.73 1174.44C1314.73 1172.77 1318.39 1172.77 1321.4 1174.44L1562.08 1307.44C1568.97 1311.24 1568.97 1321.14 1562.08 1324.94L1321.4 1457.94C1318.39 1459.6 1314.73 1459.6 1311.73 1457.94L1071.04 1324.94C1064.16 1321.14 1064.16 1311.24 1071.04 1307.44L1311.73 1174.44Z" fill="#E13100"/>
<rect x="1070.01" y="1229.53" width="491.62" height="97.7629" rx="10" fill="#E13100"/>
<path d="M1310.24 1098.89C1313.25 1097.23 1316.91 1097.23 1319.92 1098.89L1560.6 1231.89C1567.48 1235.69 1567.48 1245.59 1560.6 1249.4L1319.92 1382.39C1316.91 1384.06 1313.25 1384.06 1310.24 1382.39L1069.56 1249.4C1062.68 1245.59 1062.68 1235.69 1069.56 1231.89L1310.24 1098.89Z" fill="white"/>
<path d="M1310.24 1098.89C1313.25 1097.23 1316.91 1097.23 1319.92 1098.89L1560.6 1231.89C1567.48 1235.69 1567.48 1245.59 1560.6 1249.4L1319.92 1382.39C1316.91 1384.06 1313.25 1384.06 1310.24 1382.39L1069.56 1249.4C1062.68 1245.59 1062.68 1235.69 1069.56 1231.89L1310.24 1098.89Z" fill="#DC3100"/>
<path fill-rule="evenodd" clip-rule="evenodd" d="M1064.2 1242.21C1064.65 1245.08 1066.33 1247.78 1069.24 1249.39L1309.73 1382.37C1312.74 1384.04 1316.4 1384.04 1319.41 1382.37L1559.91 1249.39C1562.82 1247.78 1564.5 1245.08 1564.95 1242.21L1319.33 1374.98C1316.36 1376.58 1312.78 1376.58 1309.82 1374.98L1064.2 1242.21Z" fill="white"/>
<path fill-rule="evenodd" clip-rule="evenodd" d="M1064.2 1242.21C1064.65 1245.08 1066.33 1247.78 1069.24 1249.39L1309.73 1382.37C1312.74 1384.04 1316.4 1384.04 1319.41 1382.37L1559.91 1249.39C1562.82 1247.78 1564.5 1245.08 1564.95 1242.21L1319.33 1374.98C1316.36 1376.58 1312.78 1376.58 1309.82 1374.98L1064.2 1242.21Z" fill="white"/>
<path d="M1310.24 1067.79C1313.25 1066.12 1316.91 1066.12 1319.92 1067.79L1560.6 1200.78C1567.48 1204.59 1567.48 1214.49 1560.6 1218.29L1319.92 1351.29C1316.91 1352.95 1313.25 1352.95 1310.24 1351.29L1069.56 1218.29C1062.68 1214.49 1062.68 1204.59 1069.56 1200.78L1310.24 1067.79Z" fill="#E13100"/>
<path d="M1310.24 1067.79C1313.25 1066.12 1316.91 1066.12 1319.92 1067.79L1560.6 1200.78C1567.48 1204.59 1567.48 1214.49 1560.6 1218.29L1319.92 1351.29C1316.91 1352.95 1313.25 1352.95 1310.24 1351.29L1069.56 1218.29C1062.68 1214.49 1062.68 1204.59 1069.56 1200.78L1310.24 1067.79Z" fill="#E13100"/>
<rect x="1068.53" y="1122.88" width="491.62" height="97.7629" rx="10" fill="#E13100"/>
<path d="M1308.76 992.243C1311.77 990.58 1315.43 990.58 1318.44 992.243L1559.12 1125.24C1566 1129.04 1566 1138.94 1559.12 1142.75L1318.44 1275.74C1315.43 1277.41 1311.77 1277.41 1308.76 1275.74L1068.08 1142.75C1061.2 1138.94 1061.2 1129.04 1068.08 1125.24L1308.76 992.243Z" fill="white"/>
<path d="M1308.76 992.243C1311.77 990.58 1315.43 990.58 1318.44 992.243L1559.12 1125.24C1566 1129.04 1566 1138.94 1559.12 1142.75L1318.44 1275.74C1315.43 1277.41 1311.77 1277.41 1308.76 1275.74L1068.08 1142.75C1061.2 1138.94 1061.2 1129.04 1068.08 1125.24L1308.76 992.243Z" fill="#DC3100"/>
<path fill-rule="evenodd" clip-rule="evenodd" d="M1062.71 1135.56C1063.16 1138.43 1064.84 1141.13 1067.75 1142.74L1308.25 1275.72C1311.26 1277.39 1314.92 1277.39 1317.93 1275.72L1558.43 1142.74C1561.34 1141.13 1563.02 1138.43 1563.46 1135.56L1317.84 1268.33C1314.88 1269.93 1311.3 1269.93 1308.33 1268.33L1062.71 1135.56Z" fill="white"/>
<path fill-rule="evenodd" clip-rule="evenodd" d="M1062.71 1135.56C1063.16 1138.43 1064.84 1141.13 1067.75 1142.74L1308.25 1275.72C1311.26 1277.39 1314.92 1277.39 1317.93 1275.72L1558.43 1142.74C1561.34 1141.13 1563.02 1138.43 1563.46 1135.56L1317.84 1268.33C1314.88 1269.93 1311.3 1269.93 1308.33 1268.33L1062.71 1135.56Z" fill="white"/>
<path d="M1308.76 983.355C1311.77 981.692 1315.43 981.692 1318.44 983.355L1559.12 1116.35C1566 1120.16 1566 1130.05 1559.12 1133.86L1318.44 1266.85C1315.43 1268.52 1311.77 1268.52 1308.76 1266.85L1068.08 1133.86C1061.2 1130.05 1061.2 1120.16 1068.08 1116.35L1308.76 983.355Z" fill="white"/>
<path d="M1308.76 983.355C1311.77 981.692 1315.43 981.692 1318.44 983.355L1559.12 1116.35C1566 1120.16 1566 1130.05 1559.12 1133.86L1318.44 1266.85C1315.43 1268.52 1311.77 1268.52 1308.76 1266.85L1068.08 1133.86C1061.2 1130.05 1061.2 1120.16 1068.08 1116.35L1308.76 983.355Z" fill="#A93100"/>
<path d="M1308.76 968.543C1311.77 966.88 1315.43 966.88 1318.44 968.543L1559.12 1101.54C1566 1105.34 1566 1115.24 1559.12 1119.05L1318.44 1252.04C1315.43 1253.71 1311.77 1253.71 1308.76 1252.04L1068.08 1119.05C1061.2 1115.24 1061.2 1105.34 1068.08 1101.54L1308.76 968.543Z" fill="#DF3100"/>
<rect x="1067.05" y="1084.37" width="491.62" height="37.0314" rx="10" fill="#DF3100"/>
<path d="M1307.28 956.693C1310.29 955.029 1313.94 955.029 1316.95 956.693L1557.64 1089.69C1564.52 1093.49 1564.52 1103.39 1557.64 1107.2L1316.95 1240.19C1313.94 1241.86 1310.29 1241.86 1307.28 1240.19L1066.6 1107.2C1059.71 1103.39 1059.71 1093.49 1066.6 1089.69L1307.28 956.693Z" fill="white"/>
<path d="M1307.28 956.693C1310.29 955.029 1313.94 955.029 1316.95 956.693L1557.64 1089.69C1564.52 1093.49 1564.52 1103.39 1557.64 1107.2L1316.95 1240.19C1313.94 1241.86 1310.29 1241.86 1307.28 1240.19L1066.6 1107.2C1059.71 1103.39 1059.71 1093.49 1066.6 1089.69L1307.28 956.693Z" fill="#DF3100"/>
<path d="M1311.73 1281.09C1314.73 1279.42 1318.39 1279.42 1321.4 1281.09L1562.08 1414.09C1568.97 1417.89 1568.97 1427.79 1562.08 1431.59L1321.4 1564.59C1318.39 1566.25 1314.73 1566.25 1311.73 1564.59L1071.04 1431.59C1064.16 1427.79 1064.16 1417.89 1071.04 1414.09L1311.73 1281.09Z" fill="#4D4D4D"/>
<rect x="1070.01" y="1336.18" width="491.62" height="97.7629" rx="10" fill="#4D4D4D"/>
<path d="M1310.24 1205.54C1313.25 1203.88 1316.91 1203.88 1319.92 1205.54L1560.6 1338.54C1567.48 1342.35 1567.48 1352.24 1560.6 1356.05L1319.92 1489.04C1316.91 1490.71 1313.25 1490.71 1310.24 1489.04L1069.56 1356.05C1062.68 1352.24 1062.68 1342.35 1069.56 1338.54L1310.24 1205.54Z" fill="white"/>
<path d="M1310.24 1205.54C1313.25 1203.88 1316.91 1203.88 1319.92 1205.54L1560.6 1338.54C1567.48 1342.35 1567.48 1352.24 1560.6 1356.05L1319.92 1489.04C1316.91 1490.71 1313.25 1490.71 1310.24 1489.04L1069.56 1356.05C1062.68 1352.24 1062.68 1342.35 1069.56 1338.54L1310.24 1205.54Z" fill="#3C3C3C"/>
<path fill-rule="evenodd" clip-rule="evenodd" d="M1064.2 1348.86C1064.65 1351.73 1066.33 1354.43 1069.24 1356.04L1309.73 1489.02C1312.74 1490.69 1316.4 1490.69 1319.41 1489.02L1559.91 1356.04C1562.82 1354.43 1564.5 1351.73 1564.95 1348.86L1319.33 1481.63C1316.36 1483.23 1312.78 1483.23 1309.82 1481.63L1064.2 1348.86Z" fill="white"/>
<path fill-rule="evenodd" clip-rule="evenodd" d="M1064.2 1348.86C1064.65 1351.73 1066.33 1354.43 1069.24 1356.04L1309.73 1489.02C1312.74 1490.69 1316.4 1490.69 1319.41 1489.02L1559.91 1356.04C1562.82 1354.43 1564.5 1351.73 1564.95 1348.86L1319.33 1481.63C1316.36 1483.23 1312.78 1483.23 1309.82 1481.63L1064.2 1348.86Z" fill="white"/>
<path d="M1311.73 1174.44C1314.73 1172.77 1318.39 1172.77 1321.4 1174.44L1562.08 1307.44C1568.97 1311.24 1568.97 1321.14 1562.08 1324.94L1321.4 1457.94C1318.39 1459.6 1314.73 1459.6 1311.73 1457.94L1071.04 1324.94C1064.16 1321.14 1064.16 1311.24 1071.04 1307.44L1311.73 1174.44Z" fill="#4D4D4D"/>
<rect x="1070.01" y="1229.53" width="491.62" height="97.7629" rx="10" fill="#4D4D4D"/>
<path d="M1310.24 1098.89C1313.25 1097.23 1316.91 1097.23 1319.92 1098.89L1560.6 1231.89C1567.48 1235.69 1567.48 1245.59 1560.6 1249.4L1319.92 1382.39C1316.91 1384.06 1313.25 1384.06 1310.24 1382.39L1069.56 1249.4C1062.68 1245.59 1062.68 1235.69 1069.56 1231.89L1310.24 1098.89Z" fill="white"/>
<path d="M1310.24 1098.89C1313.25 1097.23 1316.91 1097.23 1319.92 1098.89L1560.6 1231.89C1567.48 1235.69 1567.48 1245.59 1560.6 1249.4L1319.92 1382.39C1316.91 1384.06 1313.25 1384.06 1310.24 1382.39L1069.56 1249.4C1062.68 1245.59 1062.68 1235.69 1069.56 1231.89L1310.24 1098.89Z" fill="#3C3C3C"/>
<path fill-rule="evenodd" clip-rule="evenodd" d="M1064.2 1242.21C1064.65 1245.08 1066.33 1247.78 1069.24 1249.39L1309.73 1382.37C1312.74 1384.04 1316.4 1384.04 1319.41 1382.37L1559.91 1249.39C1562.82 1247.78 1564.5 1245.08 1564.95 1242.21L1319.33 1374.98C1316.36 1376.58 1312.78 1376.58 1309.82 1374.98L1064.2 1242.21Z" fill="white"/>
<path fill-rule="evenodd" clip-rule="evenodd" d="M1064.2 1242.21C1064.65 1245.08 1066.33 1247.78 1069.24 1249.39L1309.73 1382.37C1312.74 1384.04 1316.4 1384.04 1319.41 1382.37L1559.91 1249.39C1562.82 1247.78 1564.5 1245.08 1564.95 1242.21L1319.33 1374.98C1316.36 1376.58 1312.78 1376.58 1309.82 1374.98L1064.2 1242.21Z" fill="white"/>
<path d="M1310.24 1067.79C1313.25 1066.12 1316.91 1066.12 1319.92 1067.79L1560.6 1200.78C1567.48 1204.59 1567.48 1214.49 1560.6 1218.29L1319.92 1351.29C1316.91 1352.95 1313.25 1352.95 1310.24 1351.29L1069.56 1218.29C1062.68 1214.49 1062.68 1204.59 1069.56 1200.78L1310.24 1067.79Z" fill="#E13100"/>
<path d="M1310.24 1067.79C1313.25 1066.12 1316.91 1066.12 1319.92 1067.79L1560.6 1200.78C1567.48 1204.59 1567.48 1214.49 1560.6 1218.29L1319.92 1351.29C1316.91 1352.95 1313.25 1352.95 1310.24 1351.29L1069.56 1218.29C1062.68 1214.49 1062.68 1204.59 1069.56 1200.78L1310.24 1067.79Z" fill="#4D4D4D"/>
<rect x="1068.53" y="1122.88" width="491.62" height="97.7629" rx="10" fill="#4D4D4D"/>
<path d="M1308.76 992.243C1311.77 990.58 1315.43 990.58 1318.44 992.243L1559.12 1125.24C1566 1129.04 1566 1138.94 1559.12 1142.75L1318.44 1275.74C1315.43 1277.41 1311.77 1277.41 1308.76 1275.74L1068.08 1142.75C1061.2 1138.94 1061.2 1129.04 1068.08 1125.24L1308.76 992.243Z" fill="white"/>
<path d="M1308.76 992.243C1311.77 990.58 1315.43 990.58 1318.44 992.243L1559.12 1125.24C1566 1129.04 1566 1138.94 1559.12 1142.75L1318.44 1275.74C1315.43 1277.41 1311.77 1277.41 1308.76 1275.74L1068.08 1142.75C1061.2 1138.94 1061.2 1129.04 1068.08 1125.24L1308.76 992.243Z" fill="#3C3C3C"/>
<path fill-rule="evenodd" clip-rule="evenodd" d="M1062.71 1135.56C1063.16 1138.43 1064.84 1141.13 1067.75 1142.74L1308.25 1275.72C1311.26 1277.39 1314.92 1277.39 1317.93 1275.72L1558.43 1142.74C1561.34 1141.13 1563.02 1138.43 1563.46 1135.56L1317.84 1268.33C1314.88 1269.93 1311.3 1269.93 1308.33 1268.33L1062.71 1135.56Z" fill="white"/>
<path fill-rule="evenodd" clip-rule="evenodd" d="M1062.71 1135.56C1063.16 1138.43 1064.84 1141.13 1067.75 1142.74L1308.25 1275.72C1311.26 1277.39 1314.92 1277.39 1317.93 1275.72L1558.43 1142.74C1561.34 1141.13 1563.02 1138.43 1563.46 1135.56L1317.84 1268.33C1314.88 1269.93 1311.3 1269.93 1308.33 1268.33L1062.71 1135.56Z" fill="white"/>
<path d="M1308.76 983.355C1311.77 981.692 1315.43 981.692 1318.44 983.355L1559.12 1116.35C1566 1120.16 1566 1130.05 1559.12 1133.86L1318.44 1266.85C1315.43 1268.52 1311.77 1268.52 1308.76 1266.85L1068.08 1133.86C1061.2 1130.05 1061.2 1120.16 1068.08 1116.35L1308.76 983.355Z" fill="white"/>
<path d="M1308.76 983.355C1311.77 981.692 1315.43 981.692 1318.44 983.355L1559.12 1116.35C1566 1120.16 1566 1130.05 1559.12 1133.86L1318.44 1266.85C1315.43 1268.52 1311.77 1268.52 1308.76 1266.85L1068.08 1133.86C1061.2 1130.05 1061.2 1120.16 1068.08 1116.35L1308.76 983.355Z" fill="#693100"/>
<path d="M1308.76 968.543C1311.77 966.88 1315.43 966.88 1318.44 968.543L1559.12 1101.54C1566 1105.34 1566 1115.24 1559.12 1119.05L1318.44 1252.04C1315.43 1253.71 1311.77 1253.71 1308.76 1252.04L1068.08 1119.05C1061.2 1115.24 1061.2 1105.34 1068.08 1101.54L1308.76 968.543Z" fill="#AF3100"/>
<rect x="1067.05" y="1084.37" width="491.62" height="37.0314" rx="10" fill="#AF3100"/>
<path d="M1307.28 956.693C1310.29 955.029 1313.94 955.029 1316.95 956.693L1557.64 1089.69C1564.52 1093.49 1564.52 1103.39 1557.64 1107.2L1316.95 1240.19C1313.94 1241.86 1310.29 1241.86 1307.28 1240.19L1066.6 1107.2C1059.71 1103.39 1059.71 1093.49 1066.6 1089.69L1307.28 956.693Z" fill="white"/>
<path d="M1307.28 956.693C1310.29 955.029 1313.94 955.029 1316.95 956.693L1557.64 1089.69C1564.52 1093.49 1564.52 1103.39 1557.64 1107.2L1316.95 1240.19C1313.94 1241.86 1310.29 1241.86 1307.28 1240.19L1066.6 1107.2C1059.71 1103.39 1059.71 1093.49 1066.6 1089.69L1307.28 956.693Z" fill="#F1310D"/>
<g filter="url(#filter5_i_1576_6243)">
<path d="M1308.76 987.799C1311.77 986.136 1315.42 986.136 1318.43 987.799L1502.85 1089.69C1509.73 1093.49 1509.73 1103.39 1502.85 1107.2L1318.43 1209.09C1315.42 1210.75 1311.77 1210.75 1308.76 1209.09L1124.35 1107.2C1117.47 1103.39 1117.47 1093.49 1124.35 1089.69L1308.76 987.799Z" fill="#5D3122"/>
</g>
<path d="M1309.49 989.112C1311.97 987.743 1314.96 987.699 1317.47 988.983L1317.71 989.112L1502.12 1091C1507.88 1094.19 1507.97 1102.39 1502.39 1105.73L1502.12 1105.88L1317.71 1207.77C1315.23 1209.14 1312.24 1209.19 1309.73 1207.9L1309.49 1207.77L1125.08 1105.88C1119.32 1102.7 1119.23 1094.5 1124.81 1091.16L1125.08 1091L1309.49 989.112Z" stroke="#E13100" stroke-width="3"/>
<path d="M714.967 1281.09C717.977 1279.42 721.63 1279.42 724.64 1281.09L965.323 1414.09C972.207 1417.89 972.207 1427.79 965.323 1431.59L724.64 1564.59C721.63 1566.25 717.977 1566.25 714.967 1564.59L474.285 1431.59C467.4 1427.79 467.4 1417.89 474.285 1414.09L714.967 1281.09Z" fill="#E13100"/>
<rect x="473.254" y="1336.18" width="491.62" height="97.7629" rx="10" fill="#E13100"/>
<path d="M713.487 1205.54C716.497 1203.88 720.15 1203.88 723.16 1205.54L963.842 1338.54C970.727 1342.35 970.727 1352.24 963.842 1356.05L723.16 1489.04C720.15 1490.71 716.497 1490.71 713.487 1489.04L472.804 1356.05C465.92 1352.24 465.92 1342.35 472.804 1338.54L713.487 1205.54Z" fill="white"/>
<path d="M713.487 1205.54C716.497 1203.88 720.15 1203.88 723.16 1205.54L963.842 1338.54C970.727 1342.35 970.727 1352.24 963.842 1356.05L723.16 1489.04C720.15 1490.71 716.497 1490.71 713.487 1489.04L472.804 1356.05C465.92 1352.24 465.92 1342.35 472.804 1338.54L713.487 1205.54Z" fill="#DC3100"/>
<path fill-rule="evenodd" clip-rule="evenodd" d="M467.441 1348.86C467.89 1351.73 469.569 1354.43 472.48 1356.04L712.977 1489.02C715.988 1490.69 719.644 1490.69 722.655 1489.02L963.152 1356.04C966.063 1354.43 967.742 1351.73 968.191 1348.86L722.571 1481.63C719.604 1483.23 716.028 1483.23 713.061 1481.63L467.441 1348.86Z" fill="white"/>
<path fill-rule="evenodd" clip-rule="evenodd" d="M467.441 1348.86C467.89 1351.73 469.569 1354.43 472.48 1356.04L712.977 1489.02C715.988 1490.69 719.644 1490.69 722.655 1489.02L963.152 1356.04C966.063 1354.43 967.742 1351.73 968.191 1348.86L722.571 1481.63C719.604 1483.23 716.028 1483.23 713.061 1481.63L467.441 1348.86Z" fill="white"/>
<path d="M714.967 1174.44C717.977 1172.77 721.63 1172.77 724.64 1174.44L965.323 1307.44C972.207 1311.24 972.207 1321.14 965.323 1324.94L724.64 1457.94C721.63 1459.6 717.977 1459.6 714.967 1457.94L474.285 1324.94C467.4 1321.14 467.4 1311.24 474.285 1307.44L714.967 1174.44Z" fill="#E13100"/>
<rect x="473.254" y="1229.53" width="491.62" height="97.7629" rx="10" fill="#E13100"/>
<path d="M713.487 1098.89C716.497 1097.23 720.15 1097.23 723.16 1098.89L963.842 1231.89C970.727 1235.69 970.727 1245.59 963.842 1249.4L723.16 1382.39C720.15 1384.06 716.497 1384.06 713.487 1382.39L472.804 1249.4C465.92 1245.59 465.92 1235.69 472.804 1231.89L713.487 1098.89Z" fill="white"/>
<path d="M713.487 1098.89C716.497 1097.23 720.15 1097.23 723.16 1098.89L963.842 1231.89C970.727 1235.69 970.727 1245.59 963.842 1249.4L723.16 1382.39C720.15 1384.06 716.497 1384.06 713.487 1382.39L472.804 1249.4C465.92 1245.59 465.92 1235.69 472.804 1231.89L713.487 1098.89Z" fill="#DC3100"/>
<path fill-rule="evenodd" clip-rule="evenodd" d="M467.441 1242.21C467.89 1245.08 469.569 1247.78 472.48 1249.39L712.977 1382.37C715.988 1384.04 719.644 1384.04 722.655 1382.37L963.152 1249.39C966.063 1247.78 967.742 1245.08 968.191 1242.21L722.571 1374.98C719.604 1376.58 716.028 1376.58 713.061 1374.98L467.441 1242.21Z" fill="white"/>
<path fill-rule="evenodd" clip-rule="evenodd" d="M467.441 1242.21C467.89 1245.08 469.569 1247.78 472.48 1249.39L712.977 1382.37C715.988 1384.04 719.644 1384.04 722.655 1382.37L963.152 1249.39C966.063 1247.78 967.742 1245.08 968.191 1242.21L722.571 1374.98C719.604 1376.58 716.028 1376.58 713.061 1374.98L467.441 1242.21Z" fill="white"/>
<path d="M713.487 1067.79C716.497 1066.12 720.15 1066.12 723.16 1067.79L963.842 1200.78C970.727 1204.59 970.727 1214.49 963.842 1218.29L723.16 1351.29C720.15 1352.95 716.497 1352.95 713.487 1351.29L472.804 1218.29C465.92 1214.49 465.92 1204.59 472.804 1200.78L713.487 1067.79Z" fill="#E13100"/>
<path d="M713.487 1067.79C716.497 1066.12 720.15 1066.12 723.16 1067.79L963.842 1200.78C970.727 1204.59 970.727 1214.49 963.842 1218.29L723.16 1351.29C720.15 1352.95 716.497 1352.95 713.487 1351.29L472.804 1218.29C465.92 1214.49 465.92 1204.59 472.804 1200.78L713.487 1067.79Z" fill="#E13100"/>
<rect x="471.773" y="1122.88" width="491.62" height="97.7629" rx="10" fill="#E13100"/>
<path d="M712.006 992.243C715.016 990.58 718.669 990.58 721.679 992.243L962.362 1125.24C969.246 1129.04 969.246 1138.94 962.362 1142.75L721.679 1275.74C718.669 1277.41 715.016 1277.41 712.006 1275.74L471.324 1142.75C464.439 1138.94 464.439 1129.04 471.324 1125.24L712.006 992.243Z" fill="white"/>
<path d="M712.006 992.243C715.016 990.58 718.669 990.58 721.679 992.243L962.362 1125.24C969.246 1129.04 969.246 1138.94 962.362 1142.75L721.679 1275.74C718.669 1277.41 715.016 1277.41 712.006 1275.74L471.324 1142.75C464.439 1138.94 464.439 1129.04 471.324 1125.24L712.006 992.243Z" fill="#DC3100"/>
<path fill-rule="evenodd" clip-rule="evenodd" d="M465.959 1135.56C466.407 1138.43 468.087 1141.13 470.997 1142.74L711.494 1275.72C714.506 1277.39 718.161 1277.39 721.173 1275.72L961.67 1142.74C964.58 1141.13 966.26 1138.43 966.708 1135.56L721.088 1268.33C718.121 1269.93 714.545 1269.93 711.578 1268.33L465.959 1135.56Z" fill="white"/>
<path fill-rule="evenodd" clip-rule="evenodd" d="M465.959 1135.56C466.407 1138.43 468.087 1141.13 470.997 1142.74L711.494 1275.72C714.506 1277.39 718.161 1277.39 721.173 1275.72L961.67 1142.74C964.58 1141.13 966.26 1138.43 966.708 1135.56L721.088 1268.33C718.121 1269.93 714.545 1269.93 711.578 1268.33L465.959 1135.56Z" fill="white"/>
<path d="M713.487 959.656C716.497 957.992 720.15 957.992 723.16 959.656L963.842 1092.65C970.727 1096.46 970.727 1106.35 963.842 1110.16L723.16 1243.16C720.15 1244.82 716.497 1244.82 713.487 1243.16L472.804 1110.16C465.92 1106.35 465.92 1096.46 472.804 1092.65L713.487 959.656Z" fill="#E13100"/>
<rect x="471.773" y="1014.75" width="491.62" height="97.7629" rx="10" fill="#E13100"/>
<path d="M712.006 884.111C715.016 882.448 718.669 882.448 721.679 884.111L962.362 1017.11C969.246 1020.91 969.246 1030.81 962.362 1034.61L721.679 1167.61C718.669 1169.27 715.016 1169.27 712.006 1167.61L471.324 1034.61C464.439 1030.81 464.439 1020.91 471.324 1017.11L712.006 884.111Z" fill="white"/>
<path d="M712.006 884.111C715.016 882.448 718.669 882.448 721.679 884.111L962.362 1017.11C969.246 1020.91 969.246 1030.81 962.362 1034.61L721.679 1167.61C718.669 1169.27 715.016 1169.27 712.006 1167.61L471.324 1034.61C464.439 1030.81 464.439 1020.91 471.324 1017.11L712.006 884.111Z" fill="#A93100"/>
<path fill-rule="evenodd" clip-rule="evenodd" d="M465.959 1027.43C466.407 1030.3 468.087 1032.99 470.997 1034.6L711.494 1167.59C714.506 1169.26 718.161 1169.26 721.173 1167.59L961.67 1034.6C964.58 1032.99 966.26 1030.3 966.708 1027.43L721.088 1160.19C718.121 1161.8 714.545 1161.8 711.578 1160.19L465.959 1027.43Z" fill="white"/>
<path fill-rule="evenodd" clip-rule="evenodd" d="M465.959 1027.43C466.407 1030.3 468.087 1032.99 470.997 1034.6L711.494 1167.59C714.506 1169.26 718.161 1169.26 721.173 1167.59L961.67 1034.6C964.58 1032.99 966.26 1030.3 966.708 1027.43L721.088 1160.19C718.121 1161.8 714.545 1161.8 711.578 1160.19L465.959 1027.43Z" fill="white"/>
<path d="M712.006 869.299C715.016 867.635 718.669 867.635 721.679 869.299L962.362 1002.3C969.246 1006.1 969.246 1016 962.362 1019.8L721.679 1152.8C718.669 1154.46 715.016 1154.46 712.006 1152.8L471.324 1019.8C464.439 1016 464.439 1006.1 471.324 1002.3L712.006 869.299Z" fill="#DF3100"/>
<rect x="470.293" y="985.126" width="491.62" height="37.0314" rx="10" fill="#DF3100"/>
<path d="M710.526 857.448C713.536 855.785 717.189 855.785 720.199 857.448L960.881 990.446C967.766 994.25 967.766 1004.15 960.881 1007.95L720.199 1140.95C717.189 1142.61 713.536 1142.61 710.526 1140.95L469.843 1007.95C462.959 1004.15 462.959 994.25 469.843 990.446L710.526 857.448Z" fill="white"/>
<path d="M710.526 857.448C713.536 855.785 717.189 855.785 720.199 857.448L960.881 990.446C967.766 994.25 967.766 1004.15 960.881 1007.95L720.199 1140.95C717.189 1142.61 713.536 1142.61 710.526 1140.95L469.843 1007.95C462.959 1004.15 462.959 994.25 469.843 990.446L710.526 857.448Z" fill="#DF3100"/>
<g filter="url(#filter6_i_1576_6243)">
<path d="M711.274 906.321C714.28 904.663 717.926 904.663 720.932 906.321L873.476 990.442C880.37 994.244 880.37 1004.15 873.476 1007.96L720.932 1092.08C717.926 1093.73 714.28 1093.73 711.274 1092.08L558.731 1007.96C551.836 1004.15 551.836 994.244 558.731 990.442L711.274 906.321Z" fill="white"/>
<path d="M711.274 906.321C714.28 904.663 717.926 904.663 720.932 906.321L873.476 990.442C880.37 994.244 880.37 1004.15 873.476 1007.96L720.932 1092.08C717.926 1093.73 714.28 1093.73 711.274 1092.08L558.731 1007.96C551.836 1004.15 551.836 994.244 558.731 990.442L711.274 906.321Z" fill="#5D5522"/>
</g>
<path d="M714.967 1281.09C717.977 1279.42 721.63 1279.42 724.64 1281.09L965.323 1414.09C972.207 1417.89 972.207 1427.79 965.323 1431.59L724.64 1564.59C721.63 1566.25 717.977 1566.25 714.967 1564.59L474.285 1431.59C467.4 1427.79 467.4 1417.89 474.285 1414.09L714.967 1281.09Z" fill="#262626"/>
<rect x="473.254" y="1336.18" width="491.62" height="97.7629" rx="10" fill="#262626"/>
<path d="M713.487 1205.54C716.497 1203.88 720.15 1203.88 723.16 1205.54L963.842 1338.54C970.727 1342.35 970.727 1352.24 963.842 1356.05L723.16 1489.04C720.15 1490.71 716.497 1490.71 713.487 1489.04L472.804 1356.05C465.92 1352.24 465.92 1342.35 472.804 1338.54L713.487 1205.54Z" fill="white"/>
<path d="M713.487 1205.54C716.497 1203.88 720.15 1203.88 723.16 1205.54L963.842 1338.54C970.727 1342.35 970.727 1352.24 963.842 1356.05L723.16 1489.04C720.15 1490.71 716.497 1490.71 713.487 1489.04L472.804 1356.05C465.92 1352.24 465.92 1342.35 472.804 1338.54L713.487 1205.54Z" fill="#1A1A1A"/>
<path fill-rule="evenodd" clip-rule="evenodd" d="M467.441 1348.86C467.89 1351.73 469.569 1354.43 472.48 1356.04L712.977 1489.02C715.988 1490.69 719.644 1490.69 722.655 1489.02L963.152 1356.04C966.063 1354.43 967.742 1351.73 968.191 1348.86L722.571 1481.63C719.604 1483.23 716.028 1483.23 713.061 1481.63L467.441 1348.86Z" fill="white"/>
<path fill-rule="evenodd" clip-rule="evenodd" d="M467.441 1348.86C467.89 1351.73 469.569 1354.43 472.48 1356.04L712.977 1489.02C715.988 1490.69 719.644 1490.69 722.655 1489.02L963.152 1356.04C966.063 1354.43 967.742 1351.73 968.191 1348.86L722.571 1481.63C719.604 1483.23 716.028 1483.23 713.061 1481.63L467.441 1348.86Z" fill="white"/>
<path d="M714.967 1174.44C717.977 1172.77 721.63 1172.77 724.64 1174.44L965.323 1307.44C972.207 1311.24 972.207 1321.14 965.323 1324.94L724.64 1457.94C721.63 1459.6 717.977 1459.6 714.967 1457.94L474.285 1324.94C467.4 1321.14 467.4 1311.24 474.285 1307.44L714.967 1174.44Z" fill="#262626"/>
<rect x="473.254" y="1229.53" width="491.62" height="97.7629" rx="10" fill="#262626"/>
<path d="M713.487 1098.89C716.497 1097.23 720.15 1097.23 723.16 1098.89L963.842 1231.89C970.727 1235.69 970.727 1245.59 963.842 1249.4L723.16 1382.39C720.15 1384.06 716.497 1384.06 713.487 1382.39L472.804 1249.4C465.92 1245.59 465.92 1235.69 472.804 1231.89L713.487 1098.89Z" fill="white"/>
<path d="M713.487 1098.89C716.497 1097.23 720.15 1097.23 723.16 1098.89L963.842 1231.89C970.727 1235.69 970.727 1245.59 963.842 1249.4L723.16 1382.39C720.15 1384.06 716.497 1384.06 713.487 1382.39L472.804 1249.4C465.92 1245.59 465.92 1235.69 472.804 1231.89L713.487 1098.89Z" fill="#1A1A1A"/>
<path fill-rule="evenodd" clip-rule="evenodd" d="M467.441 1242.21C467.89 1245.08 469.569 1247.78 472.48 1249.39L712.977 1382.37C715.988 1384.04 719.644 1384.04 722.655 1382.37L963.152 1249.39C966.063 1247.78 967.742 1245.08 968.191 1242.21L722.571 1374.98C719.604 1376.58 716.028 1376.58 713.061 1374.98L467.441 1242.21Z" fill="white"/>
<path fill-rule="evenodd" clip-rule="evenodd" d="M467.441 1242.21C467.89 1245.08 469.569 1247.78 472.48 1249.39L712.977 1382.37C715.988 1384.04 719.644 1384.04 722.655 1382.37L963.152 1249.39C966.063 1247.78 967.742 1245.08 968.191 1242.21L722.571 1374.98C719.604 1376.58 716.028 1376.58 713.061 1374.98L467.441 1242.21Z" fill="white"/>
<path d="M713.487 1067.79C716.497 1066.12 720.15 1066.12 723.16 1067.79L963.842 1200.78C970.727 1204.59 970.727 1214.49 963.842 1218.29L723.16 1351.29C720.15 1352.95 716.497 1352.95 713.487 1351.29L472.804 1218.29C465.92 1214.49 465.92 1204.59 472.804 1200.78L713.487 1067.79Z" fill="#E13100"/>
<path d="M713.487 1067.79C716.497 1066.12 720.15 1066.12 723.16 1067.79L963.842 1200.78C970.727 1204.59 970.727 1214.49 963.842 1218.29L723.16 1351.29C720.15 1352.95 716.497 1352.95 713.487 1351.29L472.804 1218.29C465.92 1214.49 465.92 1204.59 472.804 1200.78L713.487 1067.79Z" fill="#262626"/>
<rect x="471.773" y="1122.88" width="491.62" height="97.7629" rx="10" fill="#262626"/>
<path d="M712.006 992.243C715.016 990.58 718.669 990.58 721.679 992.243L962.362 1125.24C969.246 1129.04 969.246 1138.94 962.362 1142.75L721.679 1275.74C718.669 1277.41 715.016 1277.41 712.006 1275.74L471.324 1142.75C464.439 1138.94 464.439 1129.04 471.324 1125.24L712.006 992.243Z" fill="white"/>
<path d="M712.006 992.243C715.016 990.58 718.669 990.58 721.679 992.243L962.362 1125.24C969.246 1129.04 969.246 1138.94 962.362 1142.75L721.679 1275.74C718.669 1277.41 715.016 1277.41 712.006 1275.74L471.324 1142.75C464.439 1138.94 464.439 1129.04 471.324 1125.24L712.006 992.243Z" fill="#1A1A1A"/>
<path fill-rule="evenodd" clip-rule="evenodd" d="M465.959 1135.56C466.407 1138.43 468.087 1141.13 470.997 1142.74L711.494 1275.72C714.506 1277.39 718.161 1277.39 721.173 1275.72L961.67 1142.74C964.58 1141.13 966.26 1138.43 966.708 1135.56L721.088 1268.33C718.121 1269.93 714.545 1269.93 711.578 1268.33L465.959 1135.56Z" fill="white"/>
<path fill-rule="evenodd" clip-rule="evenodd" d="M465.959 1135.56C466.407 1138.43 468.087 1141.13 470.997 1142.74L711.494 1275.72C714.506 1277.39 718.161 1277.39 721.173 1275.72L961.67 1142.74C964.58 1141.13 966.26 1138.43 966.708 1135.56L721.088 1268.33C718.121 1269.93 714.545 1269.93 711.578 1268.33L465.959 1135.56Z" fill="white"/>
<path d="M713.487 959.656C716.497 957.992 720.15 957.992 723.16 959.656L963.842 1092.65C970.727 1096.46 970.727 1106.35 963.842 1110.16L723.16 1243.16C720.15 1244.82 716.497 1244.82 713.487 1243.16L472.804 1110.16C465.92 1106.35 465.92 1096.46 472.804 1092.65L713.487 959.656Z" fill="#B8B8B8"/>
<rect x="471.773" y="1014.75" width="491.62" height="97.7629" rx="10" fill="#B8B8B8"/>
<path d="M712.025 884.087C715.025 882.438 718.66 882.438 721.66 884.087L962.261 1016.36C969.171 1020.16 969.171 1030.08 962.261 1033.88L721.66 1166.15C718.66 1167.8 715.025 1167.8 712.025 1166.15L471.424 1033.88C464.515 1030.08 464.514 1020.16 471.424 1016.36L712.025 884.087Z" fill="white"/>
<path d="M712.025 884.087C715.025 882.438 718.66 882.438 721.66 884.087L962.261 1016.36C969.171 1020.16 969.171 1030.08 962.261 1033.88L721.66 1166.15C718.66 1167.8 715.025 1167.8 712.025 1166.15L471.424 1033.88C464.515 1030.08 464.514 1020.16 471.424 1016.36L712.025 884.087Z" fill="#A93100"/>
<path fill-rule="evenodd" clip-rule="evenodd" d="M465.959 1027.43C466.407 1030.3 468.087 1032.99 470.997 1034.6L711.494 1167.59C714.506 1169.26 718.161 1169.26 721.173 1167.59L961.67 1034.6C964.58 1032.99 966.26 1030.3 966.708 1027.43L721.088 1160.19C718.121 1161.8 714.545 1161.8 711.578 1160.19L465.959 1027.43Z" fill="white"/>
<path fill-rule="evenodd" clip-rule="evenodd" d="M465.959 1027.43C466.407 1030.3 468.087 1032.99 470.997 1034.6L711.494 1167.59C714.506 1169.26 718.161 1169.26 721.173 1167.59L961.67 1034.6C964.58 1032.99 966.26 1030.3 966.708 1027.43L721.088 1160.19C718.121 1161.8 714.545 1161.8 711.578 1160.19L465.959 1027.43Z" fill="white"/>
<path d="M712.006 869.299C715.016 867.635 718.669 867.635 721.679 869.299L962.362 1002.3C969.246 1006.1 969.246 1016 962.362 1019.8L721.679 1152.8C718.669 1154.46 715.016 1154.46 712.006 1152.8L471.324 1019.8C464.439 1016 464.439 1006.1 471.324 1002.3L712.006 869.299Z" fill="#DF3100"/>
<rect x="470.293" y="985.126" width="491.62" height="37.0314" rx="10" fill="#DF3100"/>
<path d="M710.526 857.448C713.536 855.785 717.189 855.785 720.199 857.448L960.881 990.446C967.766 994.25 967.766 1004.15 960.881 1007.95L720.199 1140.95C717.189 1142.61 713.536 1142.61 710.526 1140.95L469.843 1007.95C462.959 1004.15 462.959 994.25 469.843 990.446L710.526 857.448Z" fill="white"/>
<path d="M710.526 857.448C713.536 855.785 717.189 855.785 720.199 857.448L960.881 990.446C967.766 994.25 967.766 1004.15 960.881 1007.95L720.199 1140.95C717.189 1142.61 713.536 1142.61 710.526 1140.95L469.843 1007.95C462.959 1004.15 462.959 994.25 469.843 990.446L710.526 857.448Z" fill="#DF3100"/>
<path d="M712.49 889.429C715.114 887.98 718.282 887.934 720.939 889.293L721.195 889.429L905.606 991.321C911.706 994.691 911.801 1003.38 905.892 1006.91L905.606 1007.08L721.195 1108.97C718.571 1110.42 715.404 1110.46 712.746 1109.1L712.49 1108.97L528.079 1007.08C521.979 1003.71 521.884 995.022 527.793 991.486L528.079 991.321L712.49 889.429Z" stroke="white" stroke-width="2"/>
<g filter="url(#filter7_i_1576_6243)">
<path d="M711.274 906.321C714.28 904.663 717.926 904.663 720.932 906.321L873.476 990.442C880.37 994.244 880.37 1004.15 873.476 1007.96L720.932 1092.08C717.926 1093.73 714.28 1093.73 711.274 1092.08L558.731 1007.96C551.836 1004.15 551.836 994.244 558.731 990.442L711.274 906.321Z" fill="#B8B8B8"/>
</g>
<path d="M1009.64 1465.36C1123.53 1465.36 1215.85 1522.27 1215.85 1592.47C1215.85 1662.67 1123.53 1719.58 1009.64 1719.58C895.752 1719.58 803.428 1662.67 803.428 1592.47C803.428 1522.27 895.752 1465.36 1009.64 1465.36Z" fill="#E13100"/>
<rect x="803.531" y="1514.67" width="412.424" height="77.5281" fill="#E13100"/>
<ellipse cx="1009.74" cy="1514.67" rx="206.212" ry="127.11" fill="#E13100"/>
<path d="M807.92 1488.46C805.933 1495.55 804.897 1502.83 804.897 1510.27C804.897 1580.47 897.222 1637.38 1011.11 1637.38C1110.41 1637.38 1193.32 1594.11 1212.93 1536.49C1196.14 1596.3 1111.56 1641.78 1009.74 1641.78C895.856 1641.78 803.532 1584.87 803.531 1514.67C803.531 1505.69 805.044 1496.92 807.92 1488.46Z" fill="white"/>
<g filter="url(#filter8_f_1576_6243)">
<path d="M1215.96 1587.82H1179.41C1197.66 1567.14 1210.17 1545 1215.96 1521.87V1587.82Z" fill="#DC3100"/>
<path d="M1206.24 1548.32C1212.48 1560.87 1215.85 1574.24 1215.85 1588.1C1215.85 1660.72 1123.53 1719.58 1009.64 1719.58C984.493 1719.58 960.397 1716.71 938.113 1711.45C1071.51 1679.22 1171.44 1619.78 1206.24 1548.32Z" fill="#DC3100"/>
</g>
<g filter="url(#filter9_f_1576_6243)">
<ellipse cx="1010.83" cy="1509.77" rx="194.082" ry="119.517" fill="#A93100"/>
</g>
<path d="M1010.01 1375.57C1117.2 1375.57 1204.09 1429.08 1204.09 1495.09C1204.09 1561.1 1117.2 1614.61 1010.01 1614.61C902.822 1614.61 815.928 1561.1 815.928 1495.09C815.928 1429.08 902.821 1375.57 1010.01 1375.57Z" fill="#CD3100"/>
<rect x="816.025" y="1421.94" width="388.164" height="72.897" fill="#CD3100"/>
<ellipse cx="1010.11" cy="1421.94" rx="194.082" ry="119.517" fill="#DC3100"/>
<path d="M1204.19 1490.72H1169.79C1186.97 1471.27 1198.74 1450.46 1204.19 1428.71V1490.72Z" fill="#DC3100"/>
<path d="M1195.04 1453.58C1200.92 1465.38 1204.09 1477.95 1204.09 1490.99C1204.09 1559.26 1117.2 1614.61 1010.01 1614.61C986.34 1614.61 963.661 1611.91 942.688 1606.97C1068.24 1576.66 1162.29 1520.77 1195.04 1453.58Z" fill="#DC3100"/>
<path d="M1009.64 1320.04C1123.53 1320.04 1215.85 1376.95 1215.85 1447.15C1215.85 1517.35 1123.53 1574.26 1009.64 1574.26C895.752 1574.26 803.428 1517.35 803.428 1447.15C803.428 1376.95 895.752 1320.04 1009.64 1320.04Z" fill="#E13100"/>
<rect x="803.531" y="1369.35" width="412.424" height="77.5281" fill="#E13100"/>
<ellipse cx="1009.74" cy="1369.35" rx="206.212" ry="127.11" fill="#E13100"/>
<path d="M807.92 1343.14C805.933 1350.22 804.897 1357.51 804.897 1364.94C804.897 1435.14 897.222 1492.05 1011.11 1492.05C1110.41 1492.05 1193.32 1448.79 1212.93 1391.17C1196.14 1450.97 1111.56 1496.46 1009.74 1496.46C895.856 1496.46 803.532 1439.55 803.531 1369.35C803.531 1360.36 805.044 1351.6 807.92 1343.14Z" fill="white"/>
<g filter="url(#filter10_f_1576_6243)">
<path d="M1215.96 1442.5H1179.41C1197.66 1421.81 1210.17 1399.68 1215.96 1376.55V1442.5Z" fill="#DC3100"/>
<path d="M1206.24 1403C1212.48 1415.55 1215.85 1428.91 1215.85 1442.78C1215.85 1515.39 1123.53 1574.26 1009.64 1574.26C984.493 1574.26 960.397 1571.39 938.113 1566.13C1071.51 1533.9 1171.44 1474.46 1206.24 1403Z" fill="#DC3100"/>
</g>
<g filter="url(#filter11_f_1576_6243)">
<ellipse cx="1010.83" cy="1362.25" rx="194.082" ry="119.517" fill="#A93100"/>
</g>
<path d="M1010.01 1228.05C1117.2 1228.05 1204.09 1281.56 1204.09 1347.57C1204.09 1413.57 1117.2 1467.08 1010.01 1467.08C902.822 1467.08 815.928 1413.57 815.928 1347.57C815.928 1281.56 902.821 1228.05 1010.01 1228.05Z" fill="#CD3100"/>
<rect x="816.025" y="1274.41" width="388.164" height="72.897" fill="#CD3100"/>
<ellipse cx="1010.11" cy="1274.41" rx="194.082" ry="119.517" fill="#DC3100"/>
<path d="M1204.19 1343.2H1169.79C1186.97 1323.75 1198.74 1302.93 1204.19 1281.19V1343.2Z" fill="#DC3100"/>
<path d="M1195.04 1306.05C1200.92 1317.85 1204.09 1330.42 1204.09 1343.46C1204.09 1411.74 1117.2 1467.08 1010.01 1467.08C986.34 1467.08 963.661 1464.38 942.688 1459.44C1068.24 1429.14 1162.29 1373.24 1195.04 1306.05Z" fill="#DC3100"/>
<path d="M1009.64 1172.51C1123.53 1172.51 1215.85 1229.42 1215.85 1299.62C1215.85 1369.82 1123.53 1426.73 1009.64 1426.73C895.752 1426.73 803.428 1369.82 803.428 1299.62C803.428 1229.42 895.752 1172.51 1009.64 1172.51Z" fill="#E13100"/>
<rect x="803.531" y="1221.82" width="412.424" height="77.5281" fill="#E13100"/>
<ellipse cx="1009.74" cy="1221.82" rx="206.212" ry="127.11" fill="#E13100"/>
<path d="M807.92 1195.61C805.933 1202.7 804.897 1209.98 804.897 1217.42C804.897 1287.62 897.222 1344.53 1011.11 1344.53C1110.41 1344.53 1193.32 1301.26 1212.93 1243.64C1196.14 1303.45 1111.56 1348.93 1009.74 1348.93C895.856 1348.93 803.532 1292.02 803.531 1221.82C803.531 1212.84 805.044 1204.07 807.92 1195.61Z" fill="white"/>
<g filter="url(#filter12_f_1576_6243)">
<path d="M1215.96 1294.98H1179.41C1197.66 1274.29 1210.17 1252.15 1215.96 1229.02V1294.98Z" fill="#DD3100"/>
<path d="M1206.24 1255.47C1212.48 1268.02 1215.85 1281.39 1215.85 1295.26C1215.85 1367.87 1123.53 1426.73 1009.64 1426.73C984.493 1426.73 960.397 1423.86 938.113 1418.6C1071.51 1386.38 1171.44 1326.93 1206.24 1255.47Z" fill="#DD3100"/>
</g>
<path d="M1010.06 1131.79C1081.94 1131.79 1140.21 1167.69 1140.21 1211.97C1140.21 1256.25 1081.94 1292.15 1010.06 1292.15C938.176 1292.15 879.903 1256.25 879.902 1211.97C879.902 1167.69 938.175 1131.79 1010.06 1131.79Z" fill="#A93100"/>
<rect x="879.902" y="1180.18" width="260.141" height="31.3305" fill="#A93100"/>
<ellipse cx="1009.97" cy="1180.18" rx="130.071" ry="80.3345" fill="#F7311A"/>
<path d="M882.743 1163.49C881.487 1167.96 880.831 1172.56 880.831 1177.25C880.831 1221.53 939.104 1257.43 1010.99 1257.43C1073.67 1257.43 1126 1230.13 1138.37 1193.78C1127.78 1231.51 1074.39 1260.2 1010.12 1260.2C938.242 1260.2 879.969 1224.31 879.969 1180.03C879.969 1174.36 880.926 1168.82 882.743 1163.49Z" fill="white"/>
<g filter="url(#filter13_f_1576_6243)">
<path d="M842.4 847.37H1176.25L1136.68 1192.33H881.964L842.4 847.37Z" fill="url(#paint0_linear_1576_6243)" fill-opacity="0.1"/>
</g>
<g filter="url(#filter14_i_1576_6243)">
<path d="M950.167 1130.53L970.09 1144.38C966.459 1145.71 963.051 1147.43 959.997 1149.55C956.944 1151.68 954.464 1154.05 952.555 1156.57L932.632 1142.72C927.789 1139.35 927.79 1133.89 932.632 1130.53C937.474 1127.16 945.325 1127.16 950.167 1130.53Z" fill="white"/>
<path d="M1042.89 1166.18C1047.73 1169.55 1047.73 1175.01 1042.89 1178.37C1038.05 1181.74 1030.2 1181.74 1025.36 1178.37L1004.5 1163.87C997.823 1159.23 986.999 1159.23 980.322 1163.87C973.646 1168.51 973.646 1176.04 980.322 1180.68L1007.3 1199.45C992.469 1203.3 975.114 1201.08 963.185 1192.79C946.898 1181.46 946.898 1163.1 963.185 1151.77C979.295 1140.57 1005.31 1140.45 1021.63 1151.41L1021.64 1151.4L1042.89 1166.18Z" fill="white"/>
<path d="M1001.44 1166.18L1021.64 1180.22C1028.31 1184.86 1039.14 1184.86 1045.81 1180.22C1052.49 1175.58 1052.49 1168.05 1045.81 1163.41L1018.83 1144.65C1033.67 1140.8 1051.02 1143.02 1062.95 1151.31C1079.24 1162.64 1079.24 1181 1062.95 1192.32C1046.66 1203.65 1020.26 1203.65 1003.97 1192.32L983.909 1178.37C979.067 1175.01 979.067 1169.55 983.909 1166.18C988.751 1162.81 996.602 1162.81 1001.44 1166.18Z" fill="white"/>
<path d="M1075.83 1213.47C1080.68 1216.84 1088.53 1216.84 1093.37 1213.47C1098.21 1210.11 1098.21 1204.65 1093.37 1201.28L1073.45 1187.43C1071.54 1189.95 1069.06 1192.32 1066 1194.45C1062.95 1196.57 1059.54 1198.29 1055.91 1199.62L1075.83 1213.47Z" fill="white"/>
</g>
<defs>
<filter id="filter0_f_1576_6243" x="0.601562" y="0" width="2027.76" height="2167.26" filterUnits="userSpaceOnUse" color-interpolation-filters="sRGB">
<feFlood flood-opacity="0" result="BackgroundImageFix"/>
<feBlend mode="normal" in="SourceGraphic" in2="BackgroundImageFix" result="shape"/>
<feGaussianBlur stdDeviation="300" result="effect1_foregroundBlur_1576_6243"/>
</filter>
<filter id="filter1_i_1576_6243" x="820.068" y="730.294" width="388.822" height="223.783" filterUnits="userSpaceOnUse" color-interpolation-filters="sRGB">
<feFlood flood-opacity="0" result="BackgroundImageFix"/>
<feBlend mode="normal" in="SourceGraphic" in2="BackgroundImageFix" result="shape"/>
<feColorMatrix in="SourceAlpha" type="matrix" values="0 0 0 0 0 0 0 0 0 0 0 0 0 0 0 0 0 0 127 0" result="hardAlpha"/>
<feOffset dy="10"/>
<feComposite in2="hardAlpha" operator="arithmetic" k2="-1" k3="1"/>
<feColorMatrix type="matrix" values="0 0 0 0 0 0 0 0 0 0 0 0 0 0 0 0 0 0 1 0"/>
<feBlend mode="normal" in2="shape" result="effect1_innerShadow_1576_6243"/>
</filter>
<filter id="filter2_i_1576_6243" x="870.414" y="756.957" width="289.611" height="168.976" filterUnits="userSpaceOnUse" color-interpolation-filters="sRGB">
<feFlood flood-opacity="0" result="BackgroundImageFix"/>
<feBlend mode="normal" in="SourceGraphic" in2="BackgroundImageFix" result="shape"/>
<feColorMatrix in="SourceAlpha" type="matrix" values="0 0 0 0 0 0 0 0 0 0 0 0 0 0 0 0 0 0 127 0" result="hardAlpha"/>
<feOffset dy="10"/>
<feComposite in2="hardAlpha" operator="arithmetic" k2="-1" k3="1"/>
<feColorMatrix type="matrix" values="0 0 0 0 0 0 0 0 0 0 0 0 0 0 0 0 0 0 1 0"/>
<feBlend mode="normal" in2="shape" result="effect1_innerShadow_1576_6243"/>
</filter>
<filter id="filter3_i_1576_6243" x="910.445" y="779.167" width="212.51" height="126.036" filterUnits="userSpaceOnUse" color-interpolation-filters="sRGB">
<feFlood flood-opacity="0" result="BackgroundImageFix"/>
<feBlend mode="normal" in="SourceGraphic" in2="BackgroundImageFix" result="shape"/>
<feColorMatrix in="SourceAlpha" type="matrix" values="0 0 0 0 0 0 0 0 0 0 0 0 0 0 0 0 0 0 127 0" result="hardAlpha"/>
<feOffset dy="10"/>
<feComposite in2="hardAlpha" operator="arithmetic" k2="-1" k3="1"/>
<feColorMatrix type="matrix" values="0 0 0 0 0 0 0 0 0 0 0 0 0 0 0 0 0 0 1 0"/>
<feBlend mode="normal" in2="shape" result="effect1_innerShadow_1576_6243"/>
</filter>
<filter id="filter4_i_1576_6243" x="943.055" y="801.381" width="142.852" height="87.5337" filterUnits="userSpaceOnUse" color-interpolation-filters="sRGB">
<feFlood flood-opacity="0" result="BackgroundImageFix"/>
<feBlend mode="normal" in="SourceGraphic" in2="BackgroundImageFix" result="shape"/>
<feColorMatrix in="SourceAlpha" type="matrix" values="0 0 0 0 0 0 0 0 0 0 0 0 0 0 0 0 0 0 127 0" result="hardAlpha"/>
<feOffset dy="10"/>
<feComposite in2="hardAlpha" operator="arithmetic" k2="-1" k3="1"/>
<feColorMatrix type="matrix" values="0 0 0 0 0 0 0 0 0 0 0 0 0 0 0 0 0 0 1 0"/>
<feBlend mode="normal" in2="shape" result="effect1_innerShadow_1576_6243"/>
</filter>
<filter id="filter5_i_1576_6243" x="1119.19" y="986.551" width="388.822" height="223.783" filterUnits="userSpaceOnUse" color-interpolation-filters="sRGB">
<feFlood flood-opacity="0" result="BackgroundImageFix"/>
<feBlend mode="normal" in="SourceGraphic" in2="BackgroundImageFix" result="shape"/>
<feColorMatrix in="SourceAlpha" type="matrix" values="0 0 0 0 0 0 0 0 0 0 0 0 0 0 0 0 0 0 127 0" result="hardAlpha"/>
<feOffset dy="60"/>
<feComposite in2="hardAlpha" operator="arithmetic" k2="-1" k3="1"/>
<feColorMatrix type="matrix" values="0 0 0 0 0 0 0 0 0 0 0 0 0 0 0 0 0 0 1 0"/>
<feBlend mode="normal" in2="shape" result="effect1_innerShadow_1576_6243"/>
</filter>
<filter id="filter6_i_1576_6243" x="553.561" y="905.078" width="325.086" height="188.242" filterUnits="userSpaceOnUse" color-interpolation-filters="sRGB">
<feFlood flood-opacity="0" result="BackgroundImageFix"/>
<feBlend mode="normal" in="SourceGraphic" in2="BackgroundImageFix" result="shape"/>
<feColorMatrix in="SourceAlpha" type="matrix" values="0 0 0 0 0 0 0 0 0 0 0 0 0 0 0 0 0 0 127 0" result="hardAlpha"/>
<feOffset dy="8"/>
<feComposite in2="hardAlpha" operator="arithmetic" k2="-1" k3="1"/>
<feColorMatrix type="matrix" values="0 0 0 0 0 0 0 0 0 0 0 0 0 0 0 0 0 0 1 0"/>
<feBlend mode="normal" in2="shape" result="effect1_innerShadow_1576_6243"/>
</filter>
<filter id="filter7_i_1576_6243" x="553.561" y="905.078" width="325.086" height="188.242" filterUnits="userSpaceOnUse" color-interpolation-filters="sRGB">
<feFlood flood-opacity="0" result="BackgroundImageFix"/>
<feBlend mode="normal" in="SourceGraphic" in2="BackgroundImageFix" result="shape"/>
<feColorMatrix in="SourceAlpha" type="matrix" values="0 0 0 0 0 0 0 0 0 0 0 0 0 0 0 0 0 0 127 0" result="hardAlpha"/>
<feOffset dy="8"/>
<feComposite in2="hardAlpha" operator="arithmetic" k2="-1" k3="1"/>
<feColorMatrix type="matrix" values="0 0 0 0 0 0 0 0 0 0 0 0 0 0 0 0 0 0 1 0"/>
<feBlend mode="normal" in2="shape" result="effect1_innerShadow_1576_6243"/>
</filter>
<filter id="filter8_f_1576_6243" x="918.109" y="1501.87" width="317.848" height="237.71" filterUnits="userSpaceOnUse" color-interpolation-filters="sRGB">
<feFlood flood-opacity="0" result="BackgroundImageFix"/>
<feBlend mode="normal" in="SourceGraphic" in2="BackgroundImageFix" result="shape"/>
<feGaussianBlur stdDeviation="10" result="effect1_foregroundBlur_1576_6243"/>
</filter>
<filter id="filter9_f_1576_6243" x="812.748" y="1386.26" width="396.164" height="247.034" filterUnits="userSpaceOnUse" color-interpolation-filters="sRGB">
<feFlood flood-opacity="0" result="BackgroundImageFix"/>
<feBlend mode="normal" in="SourceGraphic" in2="BackgroundImageFix" result="shape"/>
<feGaussianBlur stdDeviation="2" result="effect1_foregroundBlur_1576_6243"/>
</filter>
<filter id="filter10_f_1576_6243" x="918.109" y="1356.55" width="317.848" height="237.71" filterUnits="userSpaceOnUse" color-interpolation-filters="sRGB">
<feFlood flood-opacity="0" result="BackgroundImageFix"/>
<feBlend mode="normal" in="SourceGraphic" in2="BackgroundImageFix" result="shape"/>
<feGaussianBlur stdDeviation="10" result="effect1_foregroundBlur_1576_6243"/>
</filter>
<filter id="filter11_f_1576_6243" x="812.748" y="1238.73" width="396.164" height="247.034" filterUnits="userSpaceOnUse" color-interpolation-filters="sRGB">
<feFlood flood-opacity="0" result="BackgroundImageFix"/>
<feBlend mode="normal" in="SourceGraphic" in2="BackgroundImageFix" result="shape"/>
<feGaussianBlur stdDeviation="2" result="effect1_foregroundBlur_1576_6243"/>
</filter>
<filter id="filter12_f_1576_6243" x="918.109" y="1209.02" width="317.848" height="237.71" filterUnits="userSpaceOnUse" color-interpolation-filters="sRGB">
<feFlood flood-opacity="0" result="BackgroundImageFix"/>
<feBlend mode="normal" in="SourceGraphic" in2="BackgroundImageFix" result="shape"/>
<feGaussianBlur stdDeviation="10" result="effect1_foregroundBlur_1576_6243"/>
</filter>
<filter id="filter13_f_1576_6243" x="832.4" y="837.37" width="353.846" height="364.959" filterUnits="userSpaceOnUse" color-interpolation-filters="sRGB">
<feFlood flood-opacity="0" result="BackgroundImageFix"/>
<feBlend mode="normal" in="SourceGraphic" in2="BackgroundImageFix" result="shape"/>
<feGaussianBlur stdDeviation="5" result="effect1_foregroundBlur_1576_6243"/>
</filter>
<filter id="filter14_i_1576_6243" x="929" y="1128" width="168" height="88" filterUnits="userSpaceOnUse" color-interpolation-filters="sRGB">
<feFlood flood-opacity="0" result="BackgroundImageFix"/>
<feBlend mode="normal" in="SourceGraphic" in2="BackgroundImageFix" result="shape"/>
<feColorMatrix in="SourceAlpha" type="matrix" values="0 0 0 0 0 0 0 0 0 0 0 0 0 0 0 0 0 0 127 0" result="hardAlpha"/>
<feOffset dy="8"/>
<feComposite in2="hardAlpha" operator="arithmetic" k2="-1" k3="1"/>
<feColorMatrix type="matrix" values="0 0 0 0 0 0 0 0 0 0 0 0 0 0 0 0 0 0 0.25 0"/>
<feBlend mode="normal" in2="shape" result="effect1_innerShadow_1576_6243"/>
</filter>
<linearGradient id="paint0_linear_1576_6243" x1="1009.32" y1="847.37" x2="1009.32" y2="1192.33" gradientUnits="userSpaceOnUse">
<stop stop-color="#E1312D" stop-opacity="0.1"/>
<stop offset="0.755" stop-color="#E1312D"/>
</linearGradient>
</defs>
</svg>
