<svg width="448" height="337" viewBox="0 0 448 337" fill="none" xmlns="http://www.w3.org/2000/svg">
<path d="M56.3343 9.66525L109.359 62.6896C99.6945 67.7697 90.6235 74.371 82.4973 82.4973C74.371 90.6235 67.7697 99.6945 62.6896 109.359L9.66525 56.3343C-3.22201 43.447 -3.22149 22.552 9.66525 9.66525C22.552 -3.22149 43.447 -3.22201 56.3343 9.66525Z" fill="white"/>
<path d="M303.115 146.137C316.002 159.024 316.001 179.919 303.115 192.806C290.228 205.693 269.333 205.693 256.446 192.806L200.938 137.298C183.169 119.529 154.36 119.529 136.591 137.298C118.822 155.067 118.822 183.876 136.591 201.645L208.397 273.451C168.919 288.202 122.728 279.706 90.9825 247.96C47.6343 204.612 47.6349 134.33 90.9825 90.9825C133.858 48.1073 203.084 47.6391 246.534 89.5807L246.546 89.5683L303.115 146.137Z" fill="white"/>
<path d="M192.806 146.137L246.546 199.877C264.315 217.646 293.124 217.646 310.893 199.877C328.661 182.108 328.661 153.299 310.893 135.53L239.086 63.7237C278.564 48.9725 324.755 57.4688 356.501 89.2146C399.849 132.563 399.849 202.845 356.501 246.192C313.153 289.54 242.872 289.541 199.523 246.192L146.137 192.806C133.25 179.919 133.25 159.024 146.137 146.137C159.024 133.25 179.919 133.25 192.806 146.137Z" fill="white"/>
<path d="M390.787 327.148C403.674 340.035 424.569 340.034 437.456 327.148C450.343 314.261 450.343 293.366 437.456 280.479L384.432 227.454C379.352 237.118 372.75 246.189 364.624 254.316C356.498 262.442 347.427 269.043 337.763 274.123L390.787 327.148Z" fill="white"/>
</svg>
